<svg width="205" height="45" viewBox="0 0 205 45" fill="none" xmlns="http://www.w3.org/2000/svg">
<path d="M201.776 36.412H199.878L199.868 35.6683H201.418C201.725 35.6683 201.979 35.6399 202.183 35.5829C202.389 35.526 202.544 35.4405 202.648 35.3266C202.751 35.2127 202.803 35.072 202.803 34.9045C202.803 34.7739 202.772 34.66 202.712 34.5628C202.655 34.4623 202.567 34.3802 202.45 34.3166C202.332 34.2496 202.186 34.201 202.012 34.1708C201.84 34.1373 201.639 34.1206 201.407 34.1206H200.14V38.804H199.151V33.3668H201.407C201.774 33.3668 202.104 33.397 202.396 33.4573C202.692 33.5176 202.943 33.6097 203.15 33.7337C203.36 33.8543 203.521 34.0084 203.631 34.196C203.742 34.3836 203.797 34.6047 203.797 34.8593C203.797 35.0234 203.761 35.1792 203.69 35.3266C203.619 35.474 203.514 35.6047 203.375 35.7186C203.236 35.8325 203.065 35.9263 202.862 36C202.658 36.0703 202.425 36.1156 202.161 36.1357L201.776 36.412ZM201.776 38.804H199.52L200.012 38.0502H201.776C202.051 38.0502 202.279 38.0184 202.461 37.9548C202.642 37.8878 202.778 37.794 202.867 37.6734C202.96 37.5494 203.006 37.402 203.006 37.2311C203.006 37.0603 202.96 36.9146 202.867 36.794C202.778 36.67 202.642 36.5762 202.461 36.5125C202.279 36.4455 202.051 36.412 201.776 36.412H200.274L200.285 35.6683H202.161L202.519 35.9497C202.837 35.9732 203.106 36.0469 203.327 36.1708C203.548 36.2948 203.715 36.4522 203.829 36.6432C203.943 36.8308 204 37.0352 204 37.2563C204 37.5109 203.949 37.7353 203.845 37.9296C203.745 38.1239 203.599 38.2864 203.407 38.4171C203.214 38.5444 202.981 38.6415 202.706 38.7085C202.432 38.7722 202.122 38.804 201.776 38.804Z" fill="#B3B3B3"/>
<path d="M192.555 36.1458V36.0302C192.555 35.6382 192.615 35.2747 192.736 34.9397C192.858 34.6014 193.032 34.3082 193.26 34.0603C193.488 33.8091 193.765 33.6148 194.089 33.4774C194.413 33.3367 194.777 33.2664 195.18 33.2664C195.586 33.2664 195.951 33.3367 196.276 33.4774C196.603 33.6148 196.881 33.8091 197.11 34.0603C197.341 34.3082 197.518 34.6014 197.639 34.9397C197.76 35.2747 197.821 35.6382 197.821 36.0302V36.1458C197.821 36.5377 197.76 36.9012 197.639 37.2362C197.518 37.5712 197.341 37.8643 197.11 38.1156C196.881 38.3635 196.605 38.5578 196.281 38.6985C195.96 38.8359 195.597 38.9045 195.19 38.9045C194.784 38.9045 194.419 38.8359 194.094 38.6985C193.77 38.5578 193.492 38.3635 193.26 38.1156C193.032 37.8643 192.858 37.5712 192.736 37.2362C192.615 36.9012 192.555 36.5377 192.555 36.1458ZM193.544 36.0302V36.1458C193.544 36.4171 193.578 36.6734 193.645 36.9146C193.713 37.1525 193.815 37.3635 193.95 37.5478C194.089 37.732 194.262 37.8777 194.469 37.985C194.675 38.0888 194.916 38.1407 195.19 38.1407C195.461 38.1407 195.698 38.0888 195.901 37.985C196.108 37.8777 196.279 37.732 196.415 37.5478C196.55 37.3635 196.652 37.1525 196.719 36.9146C196.791 36.6734 196.826 36.4171 196.826 36.1458V36.0302C196.826 35.7622 196.791 35.5092 196.719 35.2714C196.652 35.0302 196.548 34.8174 196.409 34.6332C196.274 34.4456 196.103 34.2982 195.896 34.191C195.693 34.0838 195.454 34.0302 195.18 34.0302C194.909 34.0302 194.67 34.0838 194.463 34.191C194.26 34.2982 194.089 34.4456 193.95 34.6332C193.815 34.8174 193.713 35.0302 193.645 35.2714C193.578 35.5092 193.544 35.7622 193.544 36.0302Z" fill="#B3B3B3"/>
<path d="M188.085 33.3668V38.804H187.096V33.3668H188.085ZM191.88 33.3668L189.138 36.4824H187.753L187.604 35.6683H188.737L190.678 33.3668H191.88ZM190.817 38.804L188.689 36.3417L189.325 35.6683L192.073 38.804H190.817Z" fill="#B3B3B3"/>
<path d="M181.761 37.3316L184.429 33.3668H185.423V38.804H184.429V34.8392L181.761 38.804H180.777V33.3668H181.761V37.3316Z" fill="#B3B3B3"/>
<path d="M179.664 38.0402L179.568 40.4171H178.686V38.804H177.932V38.0402H179.664ZM171.65 33.3668H172.639V38.0402H174.756V33.3668H175.751V38.0402H177.862V33.3668H178.852V38.804H171.65V33.3668Z" fill="#B3B3B3"/>
<path d="M168.074 36.412H166.176L166.166 35.6683H167.716C168.022 35.6683 168.277 35.6399 168.48 35.5829C168.687 35.526 168.842 35.4405 168.946 35.3266C169.049 35.2127 169.101 35.072 169.101 34.9045C169.101 34.7739 169.07 34.66 169.01 34.5628C168.953 34.4623 168.865 34.3802 168.748 34.3166C168.63 34.2496 168.484 34.201 168.309 34.1708C168.138 34.1373 167.937 34.1206 167.705 34.1206H166.438V38.804H165.449V33.3668H167.705C168.072 33.3668 168.402 33.397 168.694 33.4573C168.99 33.5176 169.241 33.6097 169.448 33.7337C169.658 33.8543 169.819 34.0084 169.929 34.196C170.04 34.3836 170.095 34.6047 170.095 34.8593C170.095 35.0234 170.059 35.1792 169.988 35.3266C169.917 35.474 169.812 35.6047 169.673 35.7186C169.534 35.8325 169.363 35.9263 169.159 36C168.956 36.0703 168.723 36.1156 168.459 36.1357L168.074 36.412ZM168.074 38.804H165.818L166.31 38.0502H168.074C168.349 38.0502 168.577 38.0184 168.758 37.9548C168.94 37.8878 169.076 37.794 169.165 37.6734C169.257 37.5494 169.304 37.402 169.304 37.2311C169.304 37.0603 169.257 36.9146 169.165 36.794C169.076 36.67 168.94 36.5762 168.758 36.5125C168.577 36.4455 168.349 36.412 168.074 36.412H166.572L166.583 35.6683H168.459L168.817 35.9497C169.134 35.9732 169.404 36.0469 169.624 36.1708C169.845 36.2948 170.013 36.4522 170.127 36.6432C170.241 36.8308 170.298 37.0352 170.298 37.2563C170.298 37.5109 170.246 37.7353 170.143 37.9296C170.043 38.1239 169.897 38.2864 169.705 38.4171C169.512 38.5444 169.279 38.6415 169.004 38.7085C168.73 38.7722 168.42 38.804 168.074 38.804Z" fill="#B3B3B3"/>
<path d="M158.853 36.1458V36.0302C158.853 35.6382 158.913 35.2747 159.034 34.9397C159.155 34.6014 159.33 34.3082 159.558 34.0603C159.786 33.8091 160.063 33.6148 160.387 33.4774C160.711 33.3367 161.075 33.2664 161.477 33.2664C161.884 33.2664 162.249 33.3367 162.573 33.4774C162.901 33.6148 163.179 33.8091 163.407 34.0603C163.639 34.3082 163.815 34.6014 163.937 34.9397C164.058 35.2747 164.118 35.6382 164.118 36.0302V36.1458C164.118 36.5377 164.058 36.9012 163.937 37.2362C163.815 37.5712 163.639 37.8643 163.407 38.1156C163.179 38.3635 162.903 38.5578 162.579 38.6985C162.258 38.8359 161.894 38.9045 161.488 38.9045C161.082 38.9045 160.717 38.8359 160.392 38.6985C160.068 38.5578 159.79 38.3635 159.558 38.1156C159.33 37.8643 159.155 37.5712 159.034 37.2362C158.913 36.9012 158.853 36.5377 158.853 36.1458ZM159.842 36.0302V36.1458C159.842 36.4171 159.875 36.6734 159.943 36.9146C160.011 37.1525 160.112 37.3635 160.248 37.5478C160.387 37.732 160.56 37.8777 160.766 37.985C160.973 38.0888 161.214 38.1407 161.488 38.1407C161.759 38.1407 161.996 38.0888 162.199 37.985C162.406 37.8777 162.577 37.732 162.712 37.5478C162.848 37.3635 162.949 37.1525 163.017 36.9146C163.088 36.6734 163.124 36.4171 163.124 36.1458V36.0302C163.124 35.7622 163.088 35.5092 163.017 35.2714C162.949 35.0302 162.846 34.8174 162.707 34.6332C162.572 34.4456 162.401 34.2982 162.194 34.191C161.991 34.0838 161.752 34.0302 161.477 34.0302C161.207 34.0302 160.968 34.0838 160.761 34.191C160.558 34.2982 160.387 34.4456 160.248 34.6332C160.112 34.8174 160.011 35.0302 159.943 35.2714C159.875 35.5092 159.842 35.7622 159.842 36.0302Z" fill="#B3B3B3"/>
<path d="M153.955 34.4121V40.8945H152.961V33.3669H153.87L153.955 34.4121ZM157.853 36.0402V36.1458C157.853 36.5411 157.803 36.9079 157.703 37.2463C157.603 37.5813 157.457 37.8727 157.265 38.1206C157.076 38.3685 156.842 38.5612 156.564 38.6985C156.286 38.8359 155.967 38.9045 155.607 38.9045C155.24 38.9045 154.916 38.8476 154.634 38.7337C154.353 38.6198 154.114 38.454 153.918 38.2362C153.722 38.0185 153.565 37.7571 153.447 37.4523C153.333 37.1474 153.255 36.804 153.212 36.4221V35.8593C153.255 35.4573 153.335 35.0972 153.453 34.7789C153.57 34.4607 153.725 34.1893 153.918 33.9648C154.114 33.737 154.351 33.5645 154.629 33.4473C154.907 33.3267 155.228 33.2664 155.591 33.2664C155.955 33.2664 156.277 33.3334 156.559 33.4674C156.84 33.598 157.077 33.7856 157.27 34.0302C157.462 34.2747 157.607 34.5679 157.703 34.9096C157.803 35.2479 157.853 35.6248 157.853 36.0402ZM156.858 36.1458V36.0402C156.858 35.7689 156.828 35.5143 156.767 35.2764C156.707 35.0352 156.612 34.8241 156.484 34.6432C156.359 34.459 156.199 34.3149 156.003 34.2111C155.807 34.1039 155.573 34.0503 155.303 34.0503C155.053 34.0503 154.836 34.0905 154.65 34.1709C154.469 34.2513 154.313 34.3602 154.185 34.4975C154.057 34.6315 153.952 34.7856 153.87 34.9598C153.791 35.1307 153.733 35.3082 153.693 35.4925V36.794C153.765 37.0285 153.864 37.2496 153.993 37.4573C154.121 37.6617 154.292 37.8275 154.506 37.9548C154.72 38.0788 154.989 38.1407 155.313 38.1407C155.58 38.1407 155.81 38.0888 156.003 37.985C156.199 37.8777 156.359 37.732 156.484 37.5478C156.612 37.3635 156.707 37.1525 156.767 36.9146C156.828 36.6734 156.858 36.4171 156.858 36.1458Z" fill="#B3B3B3"/>
<path d="M147.717 37.3316L150.385 33.3668H151.379V38.804H150.385V34.8392L147.717 38.804H146.733V33.3668H147.717V37.3316Z" fill="#B3B3B3"/>
<path d="M143.733 33.3668V38.804H142.739V33.3668H143.733ZM145.674 33.3668V34.1206H140.836V33.3668H145.674Z" fill="#B3B3B3"/>
<path d="M136.528 33.3668V38.804H135.539V33.3668H136.528ZM140.324 33.3668L137.581 36.4824H136.197L136.047 35.6683H137.18L139.121 33.3668H140.324ZM139.26 38.804L137.132 36.3417L137.768 35.6683L140.516 38.804H139.26Z" fill="#B3B3B3"/>
<path d="M132.048 38.9045C131.645 38.9045 131.28 38.8409 130.952 38.7136C130.627 38.5829 130.348 38.4004 130.112 38.1659C129.881 37.9313 129.702 37.6533 129.578 37.3317C129.453 37.0101 129.391 36.6583 129.391 36.2764V36.0654C129.391 35.6231 129.46 35.2295 129.599 34.8844C129.738 34.536 129.927 34.2412 130.166 34C130.405 33.7588 130.675 33.5762 130.978 33.4523C131.281 33.3283 131.595 33.2664 131.919 33.2664C132.333 33.2664 132.689 33.3334 132.989 33.4674C133.291 33.6014 133.539 33.789 133.732 34.0302C133.924 34.268 134.067 34.5494 134.159 34.8744C134.252 35.196 134.298 35.5478 134.298 35.9297V36.3468H129.979V35.588H133.309V35.5176C133.295 35.2764 133.242 35.0419 133.149 34.8141C133.06 34.5863 132.917 34.3987 132.721 34.2513C132.525 34.1039 132.258 34.0302 131.919 34.0302C131.695 34.0302 131.488 34.0754 131.299 34.1659C131.11 34.253 130.948 34.3836 130.813 34.5578C130.677 34.732 130.572 34.9447 130.497 35.196C130.422 35.4473 130.385 35.737 130.385 36.0654V36.2764C130.385 36.5344 130.422 36.7772 130.497 37.0051C130.576 37.2295 130.688 37.4272 130.834 37.598C130.984 37.7689 131.164 37.9029 131.374 38C131.588 38.0972 131.83 38.1458 132.101 38.1458C132.45 38.1458 132.746 38.0788 132.989 37.9447C133.231 37.8107 133.443 37.6315 133.625 37.4071L134.223 37.8543C134.099 38.0319 133.94 38.201 133.748 38.3618C133.555 38.5226 133.318 38.6533 133.037 38.7538C132.759 38.8543 132.429 38.9045 132.048 38.9045Z" fill="#B3B3B3"/>
<path d="M123.141 36.1458V36.0302C123.141 35.6382 123.201 35.2747 123.322 34.9397C123.444 34.6014 123.618 34.3082 123.846 34.0603C124.074 33.8091 124.351 33.6148 124.675 33.4774C124.999 33.3367 125.363 33.2664 125.766 33.2664C126.172 33.2664 126.537 33.3367 126.861 33.4774C127.189 33.6148 127.467 33.8091 127.695 34.0603C127.927 34.3082 128.104 34.6014 128.225 34.9397C128.346 35.2747 128.406 35.6382 128.406 36.0302V36.1458C128.406 36.5377 128.346 36.9012 128.225 37.2362C128.104 37.5712 127.927 37.8643 127.695 38.1156C127.467 38.3635 127.191 38.5578 126.867 38.6985C126.546 38.8359 126.183 38.9045 125.776 38.9045C125.37 38.9045 125.005 38.8359 124.68 38.6985C124.356 38.5578 124.078 38.3635 123.846 38.1156C123.618 37.8643 123.444 37.5712 123.322 37.2362C123.201 36.9012 123.141 36.5377 123.141 36.1458ZM124.13 36.0302V36.1458C124.13 36.4171 124.164 36.6734 124.231 36.9146C124.299 37.1525 124.401 37.3635 124.536 37.5478C124.675 37.732 124.848 37.8777 125.055 37.985C125.261 38.0888 125.502 38.1407 125.776 38.1407C126.047 38.1407 126.284 38.0888 126.487 37.985C126.694 37.8777 126.865 37.732 127 37.5478C127.136 37.3635 127.237 37.1525 127.305 36.9146C127.376 36.6734 127.412 36.4171 127.412 36.1458V36.0302C127.412 35.7622 127.376 35.5092 127.305 35.2714C127.237 35.0302 127.134 34.8174 126.995 34.6332C126.86 34.4456 126.689 34.2982 126.482 34.191C126.279 34.0838 126.04 34.0302 125.766 34.0302C125.495 34.0302 125.256 34.0838 125.049 34.191C124.846 34.2982 124.675 34.4456 124.536 34.6332C124.401 34.8174 124.299 35.0302 124.231 35.2714C124.164 35.5092 124.13 35.7622 124.13 36.0302Z" fill="#B3B3B3"/>
<path d="M118.244 34.4121V40.8945H117.25V33.3669H118.159L118.244 34.4121ZM122.142 36.0402V36.1458C122.142 36.5411 122.092 36.9079 121.992 37.2463C121.892 37.5813 121.746 37.8727 121.554 38.1206C121.365 38.3685 121.131 38.5612 120.853 38.6985C120.575 38.8359 120.256 38.9045 119.896 38.9045C119.529 38.9045 119.205 38.8476 118.923 38.7337C118.642 38.6198 118.403 38.454 118.207 38.2362C118.011 38.0185 117.854 37.7571 117.736 37.4523C117.622 37.1474 117.544 36.804 117.501 36.4221V35.8593C117.544 35.4573 117.624 35.0972 117.742 34.7789C117.859 34.4607 118.014 34.1893 118.207 33.9648C118.403 33.737 118.64 33.5645 118.918 33.4473C119.196 33.3267 119.517 33.2664 119.88 33.2664C120.244 33.2664 120.566 33.3334 120.848 33.4674C121.129 33.598 121.366 33.7856 121.559 34.0302C121.751 34.2747 121.896 34.5679 121.992 34.9096C122.092 35.2479 122.142 35.6248 122.142 36.0402ZM121.147 36.1458V36.0402C121.147 35.7689 121.117 35.5143 121.056 35.2764C120.996 35.0352 120.901 34.8241 120.773 34.6432C120.648 34.459 120.488 34.3149 120.292 34.2111C120.096 34.1039 119.862 34.0503 119.592 34.0503C119.342 34.0503 119.125 34.0905 118.939 34.1709C118.758 34.2513 118.603 34.3602 118.474 34.4975C118.346 34.6315 118.241 34.7856 118.159 34.9598C118.08 35.1307 118.022 35.3082 117.982 35.4925V36.794C118.054 37.0285 118.153 37.2496 118.282 37.4573C118.41 37.6617 118.581 37.8275 118.795 37.9548C119.009 38.0788 119.278 38.1407 119.602 38.1407C119.87 38.1407 120.099 38.0888 120.292 37.985C120.488 37.8777 120.648 37.732 120.773 37.5478C120.901 37.3635 120.996 37.1525 121.056 36.9146C121.117 36.6734 121.147 36.4171 121.147 36.1458Z" fill="#B3B3B3"/>
<path d="M114.79 33.3668V34.1357H111.866V33.3668H114.79ZM112.011 33.3668V38.804H111.021V33.3668H112.011ZM115.667 33.3668V38.804H114.673V33.3668H115.667Z" fill="#B3B3B3"/>
<path d="M100.532 35.2362H102.27C102.737 35.2362 103.13 35.3132 103.451 35.4673C103.772 35.6181 104.014 35.8275 104.178 36.0955C104.346 36.3601 104.43 36.6616 104.43 37C104.43 37.2512 104.383 37.4874 104.291 37.7085C104.198 37.9263 104.059 38.1172 103.874 38.2814C103.692 38.4455 103.465 38.5745 103.195 38.6683C102.927 38.7588 102.619 38.804 102.27 38.804H99.8105V33.3668H100.8V38.0402H102.27C102.555 38.0402 102.783 37.9916 102.954 37.8945C103.125 37.7973 103.248 37.6717 103.323 37.5176C103.398 37.3635 103.435 37.2027 103.435 37.0352C103.435 36.871 103.398 36.7102 103.323 36.5528C103.248 36.3953 103.125 36.2646 102.954 36.1608C102.783 36.0536 102.555 36 102.27 36H100.532V35.2362ZM106.488 33.3668V38.804H105.499V33.3668H106.488Z" fill="#B3B3B3"/>
<path d="M96.8058 33.3668V38.804H95.8114V33.3668H96.8058ZM98.7464 33.3668V34.1206H93.9082V33.3668H98.7464Z" fill="#B3B3B3"/>
<path d="M88.0605 36.1458V36.0302C88.0605 35.6382 88.1211 35.2747 88.2423 34.9397C88.3635 34.6014 88.5381 34.3082 88.7662 34.0603C88.9943 33.8091 89.2705 33.6148 89.5949 33.4774C89.9192 33.3367 90.2827 33.2664 90.6855 33.2664C91.0918 33.2664 91.4571 33.3367 91.7814 33.4774C92.1093 33.6148 92.3873 33.8091 92.6154 34.0603C92.847 34.3082 93.0235 34.6014 93.1446 34.9397C93.2658 35.2747 93.3264 35.6382 93.3264 36.0302V36.1458C93.3264 36.5377 93.2658 36.9012 93.1446 37.2362C93.0235 37.5712 92.847 37.8643 92.6154 38.1156C92.3873 38.3635 92.1111 38.5578 91.7867 38.6985C91.466 38.8359 91.1024 38.9045 90.6961 38.9045C90.2898 38.9045 89.9245 38.8359 89.6002 38.6985C89.2759 38.5578 88.9979 38.3635 88.7662 38.1156C88.5381 37.8643 88.3635 37.5712 88.2423 37.2362C88.1211 36.9012 88.0605 36.5377 88.0605 36.1458ZM89.0496 36.0302V36.1458C89.0496 36.4171 89.0834 36.6734 89.1511 36.9146C89.2189 37.1525 89.3204 37.3635 89.4559 37.5478C89.5949 37.732 89.7677 37.8777 89.9744 37.985C90.1811 38.0888 90.4217 38.1407 90.6961 38.1407C90.967 38.1407 91.204 38.0888 91.4072 37.985C91.6139 37.8777 91.785 37.732 91.9204 37.5478C92.0558 37.3635 92.1574 37.1525 92.2251 36.9146C92.2964 36.6734 92.332 36.4171 92.332 36.1458V36.0302C92.332 35.7622 92.2964 35.5092 92.2251 35.2714C92.1574 35.0302 92.054 34.8174 91.915 34.6332C91.7796 34.4456 91.6085 34.2982 91.4018 34.191C91.1987 34.0838 90.9599 34.0302 90.6855 34.0302C90.4146 34.0302 90.1758 34.0838 89.9691 34.191C89.7659 34.2982 89.5949 34.4456 89.4559 34.6332C89.3204 34.8174 89.2189 35.0302 89.1511 35.2714C89.0834 35.5092 89.0496 35.7622 89.0496 36.0302Z" fill="#B3B3B3"/>
<path d="M85.9703 31H86.7829C86.7829 31.3283 86.7294 31.5896 86.6225 31.7839C86.5156 31.9749 86.3695 32.1223 86.1841 32.2261C86.0024 32.33 85.7957 32.4087 85.564 32.4623C85.3359 32.5159 85.0989 32.5678 84.853 32.6181C84.5465 32.6784 84.2614 32.7739 83.9976 32.9045C83.7374 33.0318 83.5129 33.2127 83.324 33.4472C83.1387 33.6817 83.0015 33.9866 82.9124 34.3618C82.8268 34.737 82.8037 35.201 82.8429 35.7538V36.2161H82.0303V35.7538C82.0303 35.134 82.0926 34.593 82.2174 34.1307C82.3457 33.6683 82.5257 33.2781 82.7573 32.9598C82.989 32.6415 83.2634 32.3886 83.5806 32.201C83.9014 32.0134 84.2542 31.8844 84.6391 31.8141C84.9171 31.7638 85.1559 31.7102 85.3555 31.6533C85.5551 31.593 85.7066 31.5126 85.8099 31.4121C85.9168 31.3116 85.9703 31.1742 85.9703 31ZM84.7995 33.6784C85.1773 33.6784 85.5141 33.7404 85.8099 33.8643C86.1057 33.9883 86.357 34.1608 86.5637 34.3819C86.7704 34.603 86.9272 34.8643 87.0342 35.1658C87.1447 35.464 87.1999 35.7889 87.1999 36.1407V36.2513C87.1999 36.6298 87.1411 36.9816 87.0235 37.3065C86.9094 37.6281 86.7401 37.9095 86.5156 38.1508C86.2946 38.3886 86.0238 38.5745 85.703 38.7085C85.3858 38.8425 85.0241 38.9095 84.6178 38.9095C84.2115 38.9095 83.8479 38.8425 83.5272 38.7085C83.21 38.5745 82.9391 38.3886 82.7146 38.1508C82.49 37.9095 82.319 37.6281 82.2013 37.3065C82.0873 36.9816 82.0303 36.6298 82.0303 36.2513V36.1407C82.0303 36.057 82.0463 35.9749 82.0784 35.8945C82.1105 35.8141 82.1497 35.732 82.196 35.6482C82.2459 35.5645 82.2904 35.4757 82.3297 35.3819C82.4615 35.0804 82.6415 34.8007 82.8696 34.5427C83.1013 34.2848 83.3775 34.0771 83.6982 33.9196C84.0226 33.7588 84.3897 33.6784 84.7995 33.6784ZM84.6071 34.4372C84.2435 34.4372 83.9442 34.5159 83.7089 34.6734C83.4773 34.8308 83.3044 35.0402 83.1904 35.3015C83.0763 35.5595 83.0193 35.8392 83.0193 36.1407V36.2513C83.0193 36.5059 83.0514 36.7471 83.1155 36.9749C83.1797 37.2027 83.2759 37.4054 83.4042 37.5829C83.5361 37.7571 83.7018 37.8945 83.9014 37.995C84.1045 38.0955 84.3433 38.1457 84.6178 38.1457C84.8922 38.1457 85.1292 38.0955 85.3288 37.995C85.5284 37.8945 85.6923 37.7571 85.8206 37.5829C85.9489 37.4054 86.0452 37.2027 86.1093 36.9749C86.1735 36.7471 86.2055 36.5059 86.2055 36.2513V36.1407C86.2055 35.9129 86.1735 35.6968 86.1093 35.4925C86.0452 35.2881 85.9471 35.1072 85.8153 34.9497C85.687 34.7923 85.5212 34.6683 85.3181 34.5779C85.1185 34.4841 84.8815 34.4372 84.6071 34.4372Z" fill="#B3B3B3"/>
<path d="M79.7147 37.8744V35.0754C79.7147 34.861 79.6683 34.6751 79.5757 34.5176C79.4866 34.3568 79.3511 34.2329 79.1694 34.1458C78.9876 34.0587 78.7631 34.0151 78.4958 34.0151C78.2463 34.0151 78.0271 34.0553 77.8382 34.1357C77.6529 34.2161 77.5067 34.3216 77.3998 34.4523C77.2965 34.5829 77.2448 34.7236 77.2448 34.8744H76.2558C76.2558 34.6801 76.3092 34.4875 76.4162 34.2965C76.5231 34.1056 76.6763 33.933 76.8759 33.7789C77.0791 33.6215 77.3214 33.4975 77.603 33.4071C77.8881 33.3133 78.2053 33.2664 78.5546 33.2664C78.9751 33.2664 79.3458 33.3334 79.6665 33.4674C79.9909 33.6014 80.2439 33.804 80.4257 34.0754C80.611 34.3434 80.7037 34.6801 80.7037 35.0855V37.6181C80.7037 37.799 80.7197 37.9917 80.7518 38.196C80.7874 38.4004 80.8391 38.5762 80.9068 38.7236V38.804H79.875C79.8251 38.6968 79.7859 38.5545 79.7574 38.3769C79.7289 38.196 79.7147 38.0285 79.7147 37.8744ZM79.8857 35.5076L79.8964 36.1608H78.8967C78.6152 36.1608 78.3639 36.1826 78.1429 36.2262C77.922 36.2664 77.7366 36.3283 77.5869 36.4121C77.4372 36.4958 77.3232 36.6014 77.2448 36.7287C77.1664 36.8526 77.1272 36.9984 77.1272 37.1659C77.1272 37.3367 77.1682 37.4925 77.2501 37.6332C77.3321 37.7739 77.4551 37.8861 77.619 37.9699C77.7865 38.0503 77.9915 38.0905 78.2338 38.0905C78.5368 38.0905 78.8041 38.0302 79.0357 37.9096C79.2674 37.789 79.4509 37.6416 79.5864 37.4674C79.7254 37.2932 79.8002 37.124 79.8109 36.9598L80.2332 37.4071C80.2083 37.5478 80.1406 37.7035 80.0301 37.8744C79.9196 38.0453 79.7717 38.2094 79.5864 38.3669C79.4046 38.521 79.1872 38.6499 78.9341 38.7538C78.6847 38.8543 78.4031 38.9045 78.0895 38.9045C77.6974 38.9045 77.3535 38.8325 77.0577 38.6885C76.7654 38.5444 76.5373 38.3518 76.3734 38.1106C76.213 37.866 76.1328 37.593 76.1328 37.2915C76.1328 37 76.1934 36.7437 76.3146 36.5226C76.4358 36.2982 76.6104 36.1123 76.8385 35.9648C77.0666 35.8141 77.341 35.7002 77.6618 35.6231C77.9825 35.5461 78.3407 35.5076 78.7363 35.5076H79.8857Z" fill="#B3B3B3"/>
<path d="M71.1448 34.4121V40.8945H70.1504V33.3669H71.0592L71.1448 34.4121ZM75.042 36.0402V36.1458C75.042 36.5411 74.9921 36.9079 74.8923 37.2463C74.7925 37.5813 74.6464 37.8727 74.454 38.1206C74.2651 38.3685 74.0316 38.5612 73.7536 38.6985C73.4756 38.8359 73.1566 38.9045 72.7967 38.9045C72.4296 38.9045 72.1053 38.8476 71.8237 38.7337C71.5421 38.6198 71.3034 38.454 71.1073 38.2362C70.9113 38.0185 70.7545 37.7571 70.6369 37.4523C70.5228 37.1474 70.4444 36.804 70.4017 36.4221V35.8593C70.4444 35.4573 70.5246 35.0972 70.6422 34.7789C70.7598 34.4607 70.9149 34.1893 71.1073 33.9648C71.3034 33.737 71.5404 33.5645 71.8184 33.4473C72.0964 33.3267 72.4171 33.2664 72.7806 33.2664C73.1442 33.2664 73.4667 33.3334 73.7483 33.4674C74.0298 33.598 74.2668 33.7856 74.4593 34.0302C74.6518 34.2747 74.7961 34.5679 74.8923 34.9096C74.9921 35.2479 75.042 35.6248 75.042 36.0402ZM74.0477 36.1458V36.0402C74.0477 35.7689 74.0174 35.5143 73.9568 35.2764C73.8962 35.0352 73.8017 34.8241 73.6734 34.6432C73.5487 34.459 73.3883 34.3149 73.1923 34.2111C72.9963 34.1039 72.7628 34.0503 72.492 34.0503C72.2425 34.0503 72.0251 34.0905 71.8397 34.1709C71.658 34.2513 71.5029 34.3602 71.3746 34.4975C71.2463 34.6315 71.1412 34.7856 71.0592 34.9598C70.9808 35.1307 70.922 35.3082 70.8828 35.4925V36.794C70.9541 37.0285 71.0539 37.2496 71.1822 37.4573C71.3105 37.6617 71.4816 37.8275 71.6954 37.9548C71.9092 38.0788 72.1783 38.1407 72.5027 38.1407C72.77 38.1407 72.9998 38.0888 73.1923 37.985C73.3883 37.8777 73.5487 37.732 73.6734 37.5478C73.8017 37.3635 73.8962 37.1525 73.9568 36.9146C74.0174 36.6734 74.0477 36.4171 74.0477 36.1458Z" fill="#B3B3B3"/>
<path d="M62.1907 37.3316L64.8584 33.3668H65.8527V38.804H64.8584V34.8392L62.1907 38.804H61.207V33.3668H62.1907V37.3316ZM64.3184 31.397H65.1203C65.1203 31.6583 65.0562 31.8911 64.9279 32.0955C64.7996 32.2965 64.616 32.4539 64.3772 32.5678C64.1384 32.6817 63.8551 32.7387 63.5272 32.7387C63.0318 32.7387 62.6398 32.6147 62.3511 32.3668C62.066 32.1156 61.9234 31.7923 61.9234 31.397H62.7253C62.7253 31.5946 62.7859 31.7688 62.9071 31.9196C63.0283 32.0703 63.235 32.1457 63.5272 32.1457C63.8123 32.1457 64.0155 32.0703 64.1367 31.9196C64.2578 31.7688 64.3184 31.5946 64.3184 31.397Z" fill="#B3B3B3"/>
<path d="M54.6152 36.1458V36.0302C54.6152 35.6382 54.6758 35.2747 54.797 34.9397C54.9182 34.6014 55.0928 34.3082 55.3209 34.0603C55.549 33.8091 55.8252 33.6148 56.1495 33.4774C56.4739 33.3367 56.8374 33.2664 57.2401 33.2664C57.6464 33.2664 58.0118 33.3367 58.3361 33.4774C58.664 33.6148 58.942 33.8091 59.1701 34.0603C59.4017 34.3082 59.5781 34.6014 59.6993 34.9397C59.8205 35.2747 59.8811 35.6382 59.8811 36.0302V36.1458C59.8811 36.5377 59.8205 36.9012 59.6993 37.2362C59.5781 37.5712 59.4017 37.8643 59.1701 38.1156C58.942 38.3635 58.6658 38.5578 58.3414 38.6985C58.0207 38.8359 57.6571 38.9045 57.2508 38.9045C56.8445 38.9045 56.4792 38.8359 56.1549 38.6985C55.8306 38.5578 55.5526 38.3635 55.3209 38.1156C55.0928 37.8643 54.9182 37.5712 54.797 37.2362C54.6758 36.9012 54.6152 36.5377 54.6152 36.1458ZM55.6043 36.0302V36.1458C55.6043 36.4171 55.6381 36.6734 55.7058 36.9146C55.7735 37.1525 55.8751 37.3635 56.0106 37.5478C56.1495 37.732 56.3224 37.8777 56.5291 37.985C56.7358 38.0888 56.9764 38.1407 57.2508 38.1407C57.5217 38.1407 57.7587 38.0888 57.9619 37.985C58.1686 37.8777 58.3396 37.732 58.4751 37.5478C58.6105 37.3635 58.7121 37.1525 58.7798 36.9146C58.8511 36.6734 58.8867 36.4171 58.8867 36.1458V36.0302C58.8867 35.7622 58.8511 35.5092 58.7798 35.2714C58.7121 35.0302 58.6087 34.8174 58.4697 34.6332C58.3343 34.4456 58.1632 34.2982 57.9565 34.191C57.7534 34.0838 57.5146 34.0302 57.2401 34.0302C56.9693 34.0302 56.7305 34.0838 56.5238 34.191C56.3206 34.2982 56.1495 34.4456 56.0106 34.6332C55.8751 34.8174 55.7735 35.0302 55.7058 35.2714C55.6381 35.5092 55.6043 35.7622 55.6043 36.0302Z" fill="#B3B3B3"/>
<path d="M52.483 35.7236V36.4774H49.4251V35.7236H52.483ZM49.6335 33.3668V38.804H48.6445V33.3668H49.6335ZM53.2849 33.3668V38.804H52.2905V33.3668H53.2849Z" fill="#B3B3B3"/>
<path d="M46.3023 31H47.1149C47.1149 31.3283 47.0615 31.5896 46.9546 31.7839C46.8476 31.9749 46.7015 32.1223 46.5162 32.2261C46.3344 32.33 46.1277 32.4087 45.896 32.4623C45.6679 32.5159 45.4309 32.5678 45.185 32.6181C44.8785 32.6784 44.5934 32.7739 44.3296 32.9045C44.0695 33.0318 43.8449 33.2127 43.656 33.4472C43.4707 33.6817 43.3335 33.9866 43.2444 34.3618C43.1589 34.737 43.1357 35.201 43.1749 35.7538V36.2161H42.3623V35.7538C42.3623 35.134 42.4247 34.593 42.5494 34.1307C42.6777 33.6683 42.8577 33.2781 43.0894 32.9598C43.321 32.6415 43.5955 32.3886 43.9127 32.201C44.2334 32.0134 44.5863 31.8844 44.9712 31.8141C45.2492 31.7638 45.488 31.7102 45.6875 31.6533C45.8871 31.593 46.0386 31.5126 46.142 31.4121C46.2489 31.3116 46.3023 31.1742 46.3023 31ZM45.1316 33.6784C45.5093 33.6784 45.8461 33.7404 46.142 33.8643C46.4378 33.9883 46.689 34.1608 46.8958 34.3819C47.1025 34.603 47.2593 34.8643 47.3662 35.1658C47.4767 35.464 47.5319 35.7889 47.5319 36.1407V36.2513C47.5319 36.6298 47.4731 36.9816 47.3555 37.3065C47.2415 37.6281 47.0722 37.9095 46.8476 38.1508C46.6267 38.3886 46.3558 38.5745 46.035 38.7085C45.7178 38.8425 45.3561 38.9095 44.9498 38.9095C44.5435 38.9095 44.18 38.8425 43.8592 38.7085C43.542 38.5745 43.2711 38.3886 43.0466 38.1508C42.8221 37.9095 42.651 37.6281 42.5334 37.3065C42.4193 36.9816 42.3623 36.6298 42.3623 36.2513V36.1407C42.3623 36.057 42.3783 35.9749 42.4104 35.8945C42.4425 35.8141 42.4817 35.732 42.528 35.6482C42.5779 35.5645 42.6225 35.4757 42.6617 35.3819C42.7936 35.0804 42.9735 34.8007 43.2016 34.5427C43.4333 34.2848 43.7095 34.0771 44.0303 33.9196C44.3546 33.7588 44.7217 33.6784 45.1316 33.6784ZM44.9391 34.4372C44.5756 34.4372 44.2762 34.5159 44.041 34.6734C43.8093 34.8308 43.6364 35.0402 43.5224 35.3015C43.4083 35.5595 43.3513 35.8392 43.3513 36.1407V36.2513C43.3513 36.5059 43.3834 36.7471 43.4476 36.9749C43.5117 37.2027 43.6079 37.4054 43.7362 37.5829C43.8681 37.7571 44.0338 37.8945 44.2334 37.995C44.4366 38.0955 44.6754 38.1457 44.9498 38.1457C45.2242 38.1457 45.4612 38.0955 45.6608 37.995C45.8604 37.8945 46.0243 37.7571 46.1527 37.5829C46.281 37.4054 46.3772 37.2027 46.4413 36.9749C46.5055 36.7471 46.5376 36.5059 46.5376 36.2513V36.1407C46.5376 35.9129 46.5055 35.6968 46.4413 35.4925C46.3772 35.2881 46.2792 35.1072 46.1473 34.9497C46.019 34.7923 45.8533 34.6683 45.6501 34.5779C45.4505 34.4841 45.2135 34.4372 44.9391 34.4372Z" fill="#B3B3B3"/>
<path d="M36.0859 36.1458V36.0302C36.0859 35.6382 36.1465 35.2747 36.2677 34.9397C36.3889 34.6014 36.5635 34.3082 36.7916 34.0603C37.0197 33.8091 37.2959 33.6148 37.6203 33.4774C37.9446 33.3367 38.3081 33.2664 38.7108 33.2664C39.1171 33.2664 39.4825 33.3367 39.8068 33.4774C40.1347 33.6148 40.4127 33.8091 40.6408 34.0603C40.8724 34.3082 41.0488 34.6014 41.17 34.9397C41.2912 35.2747 41.3518 35.6382 41.3518 36.0302V36.1458C41.3518 36.5377 41.2912 36.9012 41.17 37.2362C41.0488 37.5712 40.8724 37.8643 40.6408 38.1156C40.4127 38.3635 40.1365 38.5578 39.8121 38.6985C39.4914 38.8359 39.1278 38.9045 38.7215 38.9045C38.3152 38.9045 37.9499 38.8359 37.6256 38.6985C37.3013 38.5578 37.0233 38.3635 36.7916 38.1156C36.5635 37.8643 36.3889 37.5712 36.2677 37.2362C36.1465 36.9012 36.0859 36.5377 36.0859 36.1458ZM37.075 36.0302V36.1458C37.075 36.4171 37.1088 36.6734 37.1765 36.9146C37.2442 37.1525 37.3458 37.3635 37.4813 37.5478C37.6203 37.732 37.7931 37.8777 37.9998 37.985C38.2065 38.0888 38.4471 38.1407 38.7215 38.1407C38.9924 38.1407 39.2294 38.0888 39.4326 37.985C39.6393 37.8777 39.8103 37.732 39.9458 37.5478C40.0812 37.3635 40.1828 37.1525 40.2505 36.9146C40.3218 36.6734 40.3574 36.4171 40.3574 36.1458V36.0302C40.3574 35.7622 40.3218 35.5092 40.2505 35.2714C40.1828 35.0302 40.0794 34.8174 39.9404 34.6332C39.805 34.4456 39.6339 34.2982 39.4272 34.191C39.2241 34.0838 38.9853 34.0302 38.7108 34.0302C38.44 34.0302 38.2012 34.0838 37.9945 34.191C37.7913 34.2982 37.6203 34.4456 37.4813 34.6332C37.3458 34.8174 37.2442 35.0302 37.1765 35.2714C37.1088 35.5092 37.075 35.7622 37.075 36.0302Z" fill="#B3B3B3"/>
<path d="M30.7828 33.3668H31.7718L31.6863 35.402C31.6649 35.9179 31.6025 36.3635 31.4991 36.7387C31.3958 37.1139 31.2639 37.4338 31.1035 37.6985C30.9432 37.9598 30.7632 38.1792 30.5636 38.3568C30.3676 38.5343 30.1644 38.6834 29.9541 38.804H29.4623L29.489 38.0452L29.6922 38.0402C29.8098 37.9095 29.9238 37.7755 30.0343 37.6382C30.1448 37.4975 30.2464 37.3316 30.3391 37.1407C30.4317 36.9464 30.5083 36.7102 30.5689 36.4321C30.6331 36.1507 30.6741 35.8074 30.6919 35.402L30.7828 33.3668ZM31.0287 33.3668H34.509V38.804H33.5199V34.2261H31.0287V33.3668ZM29.2378 38.0402H35.2521V40.407H34.263V38.804H30.2268V40.407H29.2324L29.2378 38.0402Z" fill="#B3B3B3"/>
<path d="M26.4792 38.2412L28.0883 33.3668H29.1468L26.8266 39.6432C26.7732 39.7772 26.7019 39.9213 26.6128 40.0754C26.5273 40.2328 26.4168 40.3819 26.2813 40.5226C26.1459 40.6633 25.982 40.7772 25.7895 40.8643C25.6006 40.9548 25.3743 41 25.1106 41C25.0322 41 24.9324 40.9899 24.8112 40.9698C24.69 40.9497 24.6045 40.933 24.5546 40.9196L24.5492 40.1658C24.5777 40.1692 24.6223 40.1725 24.6829 40.1759C24.747 40.1826 24.7916 40.1859 24.8165 40.1859C25.0411 40.1859 25.2317 40.1574 25.3886 40.1005C25.5454 40.0469 25.6772 39.9548 25.7842 39.8241C25.8946 39.6968 25.9891 39.5209 26.0675 39.2965L26.4792 38.2412ZM25.2977 33.3668L26.7999 37.5879L27.0565 38.5678L26.3455 38.9095L24.2178 33.3668H25.2977Z" fill="#B3B3B3"/>
<path d="M17.3003 36.211H18.3695L16.6962 38.804H15.627L17.3003 36.211ZM18.1289 33.3668H20.5453V38.804H19.5563V34.1206H18.1289C17.8473 34.1206 17.6175 34.1658 17.4393 34.2563C17.2611 34.3434 17.131 34.4573 17.049 34.598C16.967 34.7387 16.926 34.8844 16.926 35.0352C16.926 35.1826 16.9635 35.3249 17.0383 35.4623C17.1132 35.5963 17.2308 35.7069 17.3911 35.794C17.5515 35.8811 17.7582 35.9246 18.0113 35.9246H19.8236V36.6884H18.0113C17.6798 36.6884 17.3858 36.6466 17.1292 36.5628C16.8726 36.479 16.6552 36.3635 16.477 36.2161C16.2988 36.0653 16.1633 35.8894 16.0707 35.6884C15.978 35.4841 15.9317 35.263 15.9317 35.0251C15.9317 34.7873 15.9798 34.5678 16.076 34.3668C16.1758 34.1658 16.3184 33.9899 16.5037 33.8392C16.6926 33.6884 16.9225 33.5729 17.1933 33.4924C17.4678 33.4087 17.7796 33.3668 18.1289 33.3668Z" fill="#B3B3B3"/>
<path d="M13.665 33.3668V34.1357H10.869V33.3668H13.665ZM14.5364 33.3668V38.804H13.5474V33.3668H14.5364ZM10.6285 33.3668H11.6228L11.4731 35.9899C11.4482 36.3953 11.4072 36.7538 11.3502 37.0653C11.2967 37.3735 11.2219 37.6382 11.1256 37.8593C11.033 38.0804 10.9154 38.2613 10.7728 38.402C10.6338 38.5394 10.4663 38.6415 10.2703 38.7085C10.0742 38.7722 9.84793 38.804 9.59132 38.804H9.28125V37.9849L9.49509 37.9698C9.64835 37.9598 9.77843 37.9263 9.88535 37.8693C9.99584 37.8124 10.0885 37.7286 10.1633 37.6181C10.2382 37.5042 10.2988 37.3584 10.3451 37.1809C10.395 37.0033 10.4324 36.7923 10.4574 36.5477C10.4859 36.3032 10.5073 36.0184 10.5215 35.6935L10.6285 33.3668Z" fill="#B3B3B3"/>
<path d="M7.75205 38.0151V38.804H1.86071V38.0151H7.75205ZM2.02644 38.0151V40.603H1.00535L1 38.0151H2.02644ZM8.65019 38.0151L8.6395 40.598H7.6184V38.0151H8.65019ZM6.74165 31.4874V32.2814H3.33088V31.4874H6.74165ZM7.6291 31.4874V38.804H6.60265V31.4874H7.6291ZM2.97804 31.4874H4.00982L3.84944 34.4322C3.82806 34.8744 3.78351 35.2831 3.71579 35.6583C3.64807 36.0301 3.56432 36.3702 3.46453 36.6784C3.36473 36.9866 3.25068 37.263 3.12238 37.5075C2.99407 37.7487 2.85686 37.9581 2.71073 38.1357C2.56461 38.3099 2.41136 38.4539 2.25097 38.5678C2.09416 38.6784 1.93556 38.7571 1.77518 38.804H1.30472V38.0151H1.63618C1.72884 37.9213 1.83398 37.7856 1.9516 37.608C2.07277 37.4305 2.19217 37.201 2.30978 36.9196C2.43096 36.6348 2.5361 36.2881 2.6252 35.8794C2.71786 35.4707 2.78023 34.9883 2.81231 34.4322L2.97804 31.4874Z" fill="#B3B3B3"/>
<path d="M30.9078 14.3333V11.6667H34.2308V8.30667C34.2308 8.12889 34.157 7.97778 34.0093 7.85333C33.8801 7.72889 33.7232 7.66667 33.5385 7.66667H32.1539C31.9693 7.66667 31.8032 7.72889 31.6555 7.85333C31.5262 7.97778 31.4616 8.12889 31.4616 8.30667V9H28.6924V7.66667C28.6924 6.92 28.9601 6.28889 29.4955 5.77333C30.0493 5.25778 30.7047 5 31.4616 5H34.2308C34.9878 5 35.6339 5.25778 36.1693 5.77333C36.7232 6.28889 37.0001 6.92 37.0001 7.66667V18.3333C37.0001 19.0622 36.7232 19.6933 36.1693 20.2267C35.6339 20.7422 34.9878 21 34.2308 21H31.4616C30.7047 21 30.0493 20.7422 29.4955 20.2267C28.9601 19.6933 28.6924 19.0622 28.6924 18.3333V17H31.4616V17.64C31.4616 17.8356 31.5262 18.0044 31.6555 18.1467C31.8032 18.2711 31.9693 18.3333 32.1539 18.3333H33.5385C33.7232 18.3333 33.8801 18.2711 34.0093 18.1467C34.157 18.0044 34.2308 17.8356 34.2308 17.64V14.3333H30.9078Z" fill="#99CCFF"/>
<path d="M23.1534 17V18.3333C23.1534 19.0622 22.8765 19.6933 22.3226 20.2267C21.7872 20.7422 21.1411 21 20.3842 21H17.6149C16.858 21 16.2026 20.7422 15.6488 20.2267C15.1134 19.6933 14.8457 19.0622 14.8457 18.3333V7.66667C14.8457 6.92 15.1134 6.28889 15.6488 5.77333C16.2026 5.25778 16.858 5 17.6149 5H20.3842C21.1411 5 21.7872 5.25778 22.3226 5.77333C22.8765 6.28889 23.1534 6.92 23.1534 7.66667V9H20.3842V8.30667C20.3842 8.12889 20.3103 7.97778 20.1626 7.85333C20.0334 7.72889 19.8765 7.66667 19.6919 7.66667H18.3072C18.1226 7.66667 17.9565 7.72889 17.8088 7.85333C17.6796 7.97778 17.6149 8.12889 17.6149 8.30667V17.64C17.6149 17.8356 17.6796 18.0044 17.8088 18.1467C17.9565 18.2711 18.1226 18.3333 18.3072 18.3333H19.6919C19.8765 18.3333 20.0334 18.2711 20.1626 18.1467C20.3103 18.0044 20.3842 17.8356 20.3842 17.64V17H23.1534Z" fill="#0578D6"/>
<path d="M3.76923 21H1V5H6.53846C7.29538 5 7.94154 5.25778 8.47692 5.77333C9.03077 6.28889 9.30769 6.92 9.30769 7.66667V12.3333C9.30769 12.9911 9.07692 13.5689 8.61539 14.0667C8.17231 14.5644 7.61846 14.8667 6.95385 14.9733L3.76923 15V21ZM6.53846 8.30667C6.53846 8.12889 6.46462 7.97778 6.31692 7.85333C6.18769 7.72889 6.03077 7.66667 5.84615 7.66667H3.76923V12.3333H5.84615C6.03077 12.3333 6.18769 12.2711 6.31692 12.1467C6.46462 12.0044 6.53846 11.8444 6.53846 11.6667V8.30667Z" fill="#0578D6"/>
<path d="M133.149 11L136.349 11.0267C137.017 11.1333 137.573 11.4356 138.019 11.9333C138.482 12.4311 138.714 13.0089 138.714 13.6667V18.3333C138.714 19.08 138.436 19.7111 137.879 20.2267C137.341 20.7422 136.692 21 135.932 21H130.366V5H133.149V11ZM135.932 14.3333C135.932 14.1556 135.857 14.0044 135.709 13.88C135.579 13.7378 135.421 13.6667 135.236 13.6667H133.149V18.3333H135.236C135.421 18.3333 135.579 18.2711 135.709 18.1467C135.857 18.0222 135.932 17.8711 135.932 17.6933V14.3333ZM140.217 21V5H143V21H140.217Z" fill="#99CCFF"/>
<path d="M124.801 17V18.3333C124.801 19.0622 124.523 19.6933 123.966 20.2267C123.428 20.7422 122.779 21 122.019 21H119.236C118.475 21 117.817 20.7422 117.26 20.2267C116.722 19.6933 116.453 19.0622 116.453 18.3333V7.66667C116.453 6.92 116.722 6.28889 117.26 5.77333C117.817 5.25778 118.475 5 119.236 5H122.019C122.779 5 123.428 5.25778 123.966 5.77333C124.523 6.28889 124.801 6.92 124.801 7.66667V9H122.019V8.30667C122.019 8.12889 121.944 7.97778 121.796 7.85333C121.666 7.72889 121.508 7.66667 121.323 7.66667H119.931C119.746 7.66667 119.579 7.72889 119.431 7.85333C119.301 7.97778 119.236 8.12889 119.236 8.30667V17.64C119.236 17.8356 119.301 18.0044 119.431 18.1467C119.579 18.2711 119.746 18.3333 119.931 18.3333H121.323C121.508 18.3333 121.666 18.2711 121.796 18.1467C121.944 18.0044 122.019 17.8356 122.019 17.64V17H124.801Z" fill="#99CCFF"/>
<path d="M101.996 21V5H104.779V13.24L107.923 5H110.901V21H108.118V12.2533L104.807 21H101.996Z" fill="#99CCFF"/>
<path d="M88.3545 21V5H93.6416C94.4022 5 95.0515 5.25778 95.5895 5.77333C96.146 6.28889 96.4243 6.92 96.4243 7.66667V10.9733C96.4243 11.72 96.1924 12.3956 95.7286 13C96.1924 13.5867 96.4243 14.2444 96.4243 14.9733V18.3333C96.4243 19.0622 96.146 19.6933 95.5895 20.2267C95.0515 20.7422 94.4022 21 93.6416 21H91.1372H88.3545ZM92.6677 14.3333H91.1372V18.3333H92.9459C93.1314 18.3333 93.2891 18.2711 93.419 18.1467C93.5674 18.0044 93.6416 17.8356 93.6416 17.64V15.24C93.6416 14.9911 93.5396 14.7778 93.3355 14.6C93.15 14.4222 92.9274 14.3333 92.6677 14.3333ZM91.1372 7.66667V11.6667H92.6677C92.9274 11.6667 93.15 11.5778 93.3355 11.4C93.5396 11.2044 93.6416 10.9733 93.6416 10.7067V8.30667C93.6416 8.12889 93.5674 7.97778 93.419 7.85333C93.2891 7.72889 93.1314 7.66667 92.9459 7.66667H91.1372Z" fill="#99CCFF"/>
<path d="M77.2241 21H74.4414V5H80.0068C80.7674 5 81.4167 5.25778 81.9547 5.77333C82.5112 6.28889 82.7895 6.92 82.7895 7.66667V12.3333C82.7895 12.9911 82.5576 13.5689 82.0938 14.0667C81.6486 14.5644 81.092 14.8667 80.4242 14.9733L77.2241 15V21ZM80.0068 8.30667C80.0068 8.12889 79.9326 7.97778 79.7842 7.85333C79.6543 7.72889 79.4966 7.66667 79.3111 7.66667H77.2241V12.3333H79.3111C79.4966 12.3333 79.6543 12.2711 79.7842 12.1467C79.9326 12.0044 80.0068 11.8444 80.0068 11.6667V8.30667Z" fill="#99CCFF"/>
<path d="M61.9131 5H68.8698V7.66667H64.6958V11.6667H68.035V14.3333H64.6958V18.3333H68.8698V21H61.9131V5Z" fill="#99CCFF"/>
<path d="M56.3481 17V18.3333C56.3481 19.0622 56.0698 19.6933 55.5133 20.2267C54.9753 20.7422 54.326 21 53.5654 21H50.7827C50.0221 21 49.3635 20.7422 48.807 20.2267C48.269 19.6933 48 19.0622 48 18.3333V7.66667C48 6.92 48.269 6.28889 48.807 5.77333C49.3635 5.25778 50.0221 5 50.7827 5H53.5654C54.326 5 54.9753 5.25778 55.5133 5.77333C56.0698 6.28889 56.3481 6.92 56.3481 7.66667V9H53.5654V8.30667C53.5654 8.12889 53.4912 7.97778 53.3428 7.85333C53.2129 7.72889 53.0552 7.66667 52.8697 7.66667H51.4784C51.2929 7.66667 51.1259 7.72889 50.9775 7.85333C50.8476 7.97778 50.7827 8.12889 50.7827 8.30667V17.64C50.7827 17.8356 50.8476 18.0044 50.9775 18.1467C51.1259 18.2711 51.2929 18.3333 51.4784 18.3333H52.8697C53.0552 18.3333 53.2129 18.2711 53.3428 18.1467C53.4912 18.0044 53.5654 17.8356 53.5654 17.64V17H56.3481Z" fill="#99CCFF"/>
</svg>
