<svg width="33" height="32" viewBox="0 0 33 32" fill="none" xmlns="http://www.w3.org/2000/svg">
<path fill-rule="evenodd" clip-rule="evenodd" d="M16.5 30C24.232 30 30.5 23.732 30.5 16C30.5 8.26801 24.232 2 16.5 2C8.76801 2 2.5 8.26801 2.5 16C2.5 23.732 8.76801 30 16.5 30ZM16.5 32C25.3366 32 32.5 24.8366 32.5 16C32.5 7.16344 25.3366 0 16.5 0C7.66344 0 0.5 7.16344 0.5 16C0.5 24.8366 7.66344 32 16.5 32Z" fill="#99CCFF"/>
<path fill-rule="evenodd" clip-rule="evenodd" d="M23.6267 7.11231C24.1171 7.36638 24.3086 7.96987 24.0546 8.46024L15.7647 24.4602C15.6179 24.7437 15.3445 24.94 15.029 24.9886C14.7135 25.0371 14.3937 24.9322 14.1684 24.706L7.79161 18.306C7.4018 17.9148 7.40295 17.2816 7.79418 16.8918C8.18541 16.502 8.81857 16.5032 9.20839 16.8944L14.6188 22.3245L22.2788 7.54017C22.5328 7.0498 23.1363 6.85824 23.6267 7.11231Z" fill="#99CCFF"/>
</svg>
