<svg width="100" height="100" viewBox="0 0 100 100" fill="none" xmlns="http://www.w3.org/2000/svg">
<path d="M59.3333 78.9086L51.995 71.4772L48 75.5228L59.3333 87L82 64.0457L78.005 60L59.3333 78.9086Z" fill="white"/>
<path d="M39.6496 81.3572H19.6999V13.6441H42.4995V30.5724C42.504 32.0675 43.106 33.5002 44.174 34.5575C45.2419 35.6147 46.6891 36.2107 48.1994 36.2151H65.2992V53.1434H70.9991V30.5724C71.0091 30.2016 70.9379 29.833 70.7903 29.4921C70.6427 29.1511 70.4222 28.8459 70.1441 28.5974L50.1944 8.84771C49.9446 8.57083 49.6365 8.35155 49.2918 8.20531C48.9471 8.05907 48.5742 7.98943 48.1994 8.0013H19.6999C18.1896 8.00576 16.7424 8.6017 15.6744 9.65896C14.6065 10.7162 14.0045 12.1489 14 13.6441V81.3572C14.0045 82.8524 14.6065 84.2851 15.6744 85.3423C16.7424 86.3996 18.1896 86.9955 19.6999 87H39.6496V81.3572ZM48.1994 14.7726L64.1592 30.5724H48.1994V14.7726Z" fill="white"/>
<g opacity="0.2">
<path d="M86 56C86 65.2826 82.3125 74.185 75.7487 80.7487C69.185 87.3125 60.2826 91 51 91C41.7174 91 32.815 87.3125 26.2513 80.7487C19.6875 74.185 16 65.2826 16 56C16 46.7174 19.6875 37.815 26.2513 31.2513C32.815 24.6875 41.7174 21 51 21C60.2826 21 69.185 24.6875 75.7487 31.2513C82.3125 37.815 86 46.7174 86 56Z" fill="white"/>
<path fill-rule="evenodd" clip-rule="evenodd" d="M51 81C57.6304 81 63.9893 78.3661 68.6777 73.6777C73.3661 68.9893 76 62.6304 76 56C76 49.3696 73.3661 43.0107 68.6777 38.3223C63.9893 33.6339 57.6304 31 51 31C44.3696 31 38.0107 33.6339 33.3223 38.3223C28.6339 43.0107 26 49.3696 26 56C26 62.6304 28.6339 68.9893 33.3223 73.6777C38.0107 78.3661 44.3696 81 51 81ZM51 91C55.5963 91 60.1475 90.0947 64.3939 88.3358C68.6403 86.5769 72.4987 83.9988 75.7487 80.7487C78.9988 77.4987 81.5769 73.6403 83.3358 69.3939C85.0947 65.1475 86 60.5963 86 56C86 51.4037 85.0947 46.8525 83.3358 42.6061C81.5769 38.3597 78.9988 34.5013 75.7487 31.2513C72.4987 28.0012 68.6403 25.4231 64.3939 23.6642C60.1475 21.9053 55.5963 21 51 21C41.7174 21 32.815 24.6875 26.2513 31.2513C19.6875 37.815 16 46.7174 16 56C16 65.2826 19.6875 74.185 26.2513 80.7487C32.815 87.3125 41.7174 91 51 91Z" fill="white"/>
</g>
</svg>
