<svg width="12" height="12" viewBox="0 0 12 12" fill="none" xmlns="http://www.w3.org/2000/svg">
<path d="M0 12V8.90322C0 7.76037 0.147505 6.65438 0.442516 5.58525C0.737527 4.4977 1.15401 3.47465 1.69197 2.51613C2.24729 1.5576 2.89805 0.718894 3.64425 0L5.49241 1.43779C4.69414 2.58065 4.08677 3.73272 3.67028 4.89401C3.27115 6.0553 3.07158 7.36406 3.07158 8.82028V12H0ZM6.50759 12V8.90322C6.50759 7.76037 6.6551 6.65438 6.95011 5.58525C7.24512 4.4977 7.66161 3.47465 8.19957 2.51613C8.75488 1.5576 9.40564 0.718894 10.1518 0L12 1.43779C11.2017 2.58065 10.5944 3.73272 10.1779 4.89401C9.77874 6.0553 9.57918 7.36406 9.57918 8.82028V12H6.50759Z" fill="#E9E9E9"/>
</svg>
