<svg width="100" height="100" viewBox="0 0 100 100" fill="none" xmlns="http://www.w3.org/2000/svg">
<g opacity="0.2">
<path d="M92 58C92 67.2826 88.3125 76.185 81.7487 82.7487C75.185 89.3125 66.2826 93 57 93C47.7174 93 38.815 89.3125 32.2513 82.7487C25.6875 76.185 22 67.2826 22 58C22 48.7174 25.6875 39.815 32.2513 33.2513C38.815 26.6875 47.7174 23 57 23C66.2826 23 75.185 26.6875 81.7487 33.2513C88.3125 39.815 92 48.7174 92 58Z" fill="white"/>
<path fill-rule="evenodd" clip-rule="evenodd" d="M57 83C63.6304 83 69.9893 80.3661 74.6777 75.6777C79.3661 70.9893 82 64.6304 82 58C82 51.3696 79.3661 45.0107 74.6777 40.3223C69.9893 35.6339 63.6304 33 57 33C50.3696 33 44.0107 35.6339 39.3223 40.3223C34.6339 45.0107 32 51.3696 32 58C32 64.6304 34.6339 70.9893 39.3223 75.6777C44.0107 80.3661 50.3696 83 57 83ZM57 93C61.5963 93 66.1475 92.0947 70.3939 90.3358C74.6403 88.5769 78.4987 85.9988 81.7487 82.7487C84.9988 79.4987 87.5769 75.6403 89.3358 71.3939C91.0947 67.1475 92 62.5963 92 58C92 53.4037 91.0947 48.8525 89.3358 44.6061C87.5769 40.3597 84.9988 36.5013 81.7487 33.2513C78.4987 30.0012 74.6403 27.4231 70.3939 25.6642C66.1475 23.9053 61.5963 23 57 23C47.7174 23 38.815 26.6875 32.2513 33.2513C25.6875 39.815 22 48.7174 22 58C22 67.2826 25.6875 76.185 32.2513 82.7487C38.815 89.3125 47.7174 93 57 93Z" fill="white"/>
</g>
<path fill-rule="evenodd" clip-rule="evenodd" d="M21.9898 12.4229C24.0082 10.1991 27.1322 9 31.2126 9C36.7899 9 41.1235 12.6693 43.9099 16.5131C44.694 17.5947 45.3961 18.7447 46 19.91C46.6039 18.7447 47.306 17.5947 48.0901 16.5131C50.8765 12.6693 55.2101 9 60.7874 9C64.8678 9 67.9918 10.1991 70.0102 12.4229C72.0074 14.6234 72.5789 17.4514 72.3495 20.0287C72.1685 22.0618 71.4839 24.0794 70.4481 25.7948H75.7719C77.9541 25.7948 80.047 26.6562 81.59 28.1895C83.1331 29.7227 84 31.8023 84 33.9706V37.4252C84 39.5935 83.1331 41.673 81.59 43.2063C80.8405 43.951 79.9613 44.5372 79.0052 44.9432V76.8242C79.0052 78.9926 78.1383 81.0721 76.5952 82.6054C75.0521 84.1386 72.9593 85 70.7771 85H21.2229C19.0407 85 16.9479 84.1386 15.4048 82.6054C13.8617 81.0721 12.9948 78.9926 12.9948 76.8242V44.9432C12.0387 44.5372 11.1595 43.951 10.41 43.2063C8.86689 41.673 8 39.5935 8 37.4252V33.9706C8 31.8023 8.86689 29.7227 10.41 28.1895C11.953 26.6562 14.0459 25.7948 16.2281 25.7948H21.5519C20.5161 24.0794 19.8315 22.0618 19.6505 20.0287C19.4211 17.4514 19.9926 14.6234 21.9898 12.4229ZM16.2281 30.6312C15.3368 30.6312 14.482 30.983 13.8517 31.6093C13.2214 32.2356 12.8673 33.0849 12.8673 33.9706V37.4252C12.8673 38.3108 13.2214 39.1602 13.8517 39.7865C14.482 40.4127 15.3368 40.7645 16.2281 40.7645H45.8307C45.8866 40.7607 45.9431 40.7588 46 40.7588C46.0569 40.7588 46.1134 40.7607 46.1693 40.7645H75.7719C76.6632 40.7645 77.518 40.4127 78.1483 39.7865C78.7786 39.1602 79.1327 38.3108 79.1327 37.4252V33.9706C79.1327 33.0849 78.7786 32.2356 78.1483 31.6093C77.518 30.983 76.6632 30.6312 75.7719 30.6312H16.2281ZM48.8439 25.7948H63.0531C63.7587 25.7948 64.75 25.3418 65.7281 24.0991C66.6793 22.8907 67.3558 21.2342 67.5011 19.6026C67.6454 17.9811 67.2565 16.6104 66.3956 15.6619C65.5558 14.7366 63.9241 13.8364 60.7874 13.8364C57.4876 13.8364 54.4276 16.0456 52.0395 19.3398C50.4487 21.5343 49.382 23.9059 48.8439 25.7948ZM43.5663 45.6067H17.8622V76.8242C17.8622 77.7099 18.2162 78.5593 18.8465 79.1856C19.4768 79.8118 20.3316 80.1636 21.2229 80.1636H43.5663V45.6067ZM48.4337 80.1636H70.7771C71.6684 80.1636 72.5232 79.8118 73.1535 79.1856C73.7838 78.5593 74.1378 77.7099 74.1378 76.8242V45.6067H48.4337V80.1636ZM28.9469 25.7948C28.2413 25.7948 27.25 25.3418 26.2719 24.0991C25.3207 22.8907 24.6442 21.2342 24.4989 19.6026C24.3546 17.9811 24.7435 16.6104 25.6044 15.6619C26.4442 14.7366 28.0759 13.8364 31.2126 13.8364C34.5124 13.8364 37.5724 16.0456 39.9605 19.3398C41.5513 21.5343 42.618 23.9059 43.1561 25.7948H28.9469Z" fill="white"/>
</svg>
