<svg width="100" height="100" viewBox="0 0 100 100" fill="none" xmlns="http://www.w3.org/2000/svg">
<path d="M27 13H77C78.3261 13 79.5979 13.5268 80.5355 14.4645C81.4732 15.4021 82 16.6739 82 18V53C82 54.3261 81.4732 55.5979 80.5355 56.5355C79.5979 57.4732 78.3261 58 77 58H42V63H57V73H42V78H69.5C70.163 78 70.7989 77.7366 71.2678 77.2678C71.7366 76.7989 72 76.163 72 75.5C72 74.837 71.7366 74.2011 71.2678 73.7322C70.7989 73.2634 70.163 73 69.5 73H62V63H77C79.6522 63 82.1957 61.9464 84.0711 60.0711C85.9464 58.1957 87 55.6522 87 53V18C87 15.3478 85.9464 12.8043 84.0711 10.9289C82.1957 9.05357 79.6522 8 77 8H27C24.3478 8 21.8043 9.05357 19.9289 10.9289C18.0536 12.8043 17 15.3478 17 18V33H22V18C22 16.6739 22.5268 15.4021 23.4645 14.4645C24.4021 13.5268 25.6739 13 27 13ZM19.5 73C18.837 73 18.2011 73.2634 17.7322 73.7322C17.2634 74.2011 17 74.837 17 75.5C17 76.163 17.2634 76.7989 17.7322 77.2678C18.2011 77.7366 18.837 78 19.5 78H24.5C25.163 78 25.7989 77.7366 26.2678 77.2678C26.7366 76.7989 27 76.163 27 75.5C27 74.837 26.7366 74.2011 26.2678 73.7322C25.7989 73.2634 25.163 73 24.5 73H19.5ZM7 45.5C7 43.5109 7.79018 41.6032 9.1967 40.1967C10.6032 38.7902 12.5109 38 14.5 38H29.5C31.4891 38 33.3968 38.7902 34.8033 40.1967C36.2098 41.6032 37 43.5109 37 45.5V80.5C37 82.4891 36.2098 84.3968 34.8033 85.8033C33.3968 87.2098 31.4891 88 29.5 88H14.5C12.5109 88 10.6032 87.2098 9.1967 85.8033C7.79018 84.3968 7 82.4891 7 80.5V45.5ZM14.5 43C13.837 43 13.2011 43.2634 12.7322 43.7322C12.2634 44.2011 12 44.837 12 45.5V80.5C12 81.163 12.2634 81.7989 12.7322 82.2678C13.2011 82.7366 13.837 83 14.5 83H29.5C30.163 83 30.7989 82.7366 31.2678 82.2678C31.7366 81.7989 32 81.163 32 80.5V45.5C32 44.837 31.7366 44.2011 31.2678 43.7322C30.7989 43.2634 30.163 43 29.5 43H14.5Z" fill="white"/>
<g opacity="0.2">
<path d="M92 58C92 67.2826 88.3125 76.185 81.7487 82.7487C75.185 89.3125 66.2826 93 57 93C47.7174 93 38.815 89.3125 32.2513 82.7487C25.6875 76.185 22 67.2826 22 58C22 48.7174 25.6875 39.815 32.2513 33.2513C38.815 26.6875 47.7174 23 57 23C66.2826 23 75.185 26.6875 81.7487 33.2513C88.3125 39.815 92 48.7174 92 58Z" fill="white"/>
<path fill-rule="evenodd" clip-rule="evenodd" d="M57 83C63.6304 83 69.9893 80.3661 74.6777 75.6777C79.3661 70.9893 82 64.6304 82 58C82 51.3696 79.3661 45.0107 74.6777 40.3223C69.9893 35.6339 63.6304 33 57 33C50.3696 33 44.0107 35.6339 39.3223 40.3223C34.6339 45.0107 32 51.3696 32 58C32 64.6304 34.6339 70.9893 39.3223 75.6777C44.0107 80.3661 50.3696 83 57 83ZM57 93C61.5963 93 66.1475 92.0947 70.3939 90.3358C74.6403 88.5769 78.4987 85.9988 81.7487 82.7487C84.9988 79.4987 87.5769 75.6403 89.3358 71.3939C91.0947 67.1475 92 62.5963 92 58C92 53.4037 91.0947 48.8525 89.3358 44.6061C87.5769 40.3597 84.9988 36.5013 81.7487 33.2513C78.4987 30.0012 74.6403 27.4231 70.3939 25.6642C66.1475 23.9053 61.5963 23 57 23C47.7174 23 38.815 26.6875 32.2513 33.2513C25.6875 39.815 22 48.7174 22 58C22 67.2826 25.6875 76.185 32.2513 82.7487C38.815 89.3125 47.7174 93 57 93Z" fill="white"/>
</g>
</svg>
