<svg width="24" height="24" viewBox="0 0 24 24" fill="none" xmlns="http://www.w3.org/2000/svg">
<g clip-path="url(#clip0_3763_12790)">
<path d="M23.0525 9.81958C23.0818 9.6865 23.0315 9.54845 22.9235 9.46539C22.8154 9.38238 22.6691 9.36916 22.548 9.43164L22.2822 9.56875C22.8276 8.30228 22.6902 7.1328 22.6822 7.06961C22.6666 6.946 22.5866 6.83988 22.4721 6.7907C22.3577 6.74153 22.2257 6.75667 22.1253 6.83045L21.8386 7.04111C22.2233 5.6282 21.9384 4.459 21.9227 4.39717C21.8906 4.27038 21.7908 4.17189 21.6636 4.14152C21.5365 4.11114 21.4029 4.15389 21.3169 4.25247L16.2119 10.109C16.0904 10.2483 16.0976 10.4579 16.2283 10.5886C16.3039 10.6641 16.3455 10.7646 16.3455 10.8714C16.3455 10.9782 16.3039 11.0786 16.2283 11.1542C16.1528 11.2298 16.0523 11.2713 15.9455 11.2713C15.8387 11.2713 15.7383 11.2298 15.6627 11.1542C15.5871 11.0786 15.5455 10.9782 15.5456 10.8714C15.5456 10.8592 15.545 10.8471 15.5437 10.8352C15.5247 10.451 15.2071 10.144 14.8183 10.144H14.4183V9.4862C14.4183 8.77717 14.6945 8.11056 15.1958 7.60919L15.3396 7.46537H16.697C16.9175 7.46537 17.0969 7.64481 17.0969 7.86531C17.0969 8.05947 17.2543 8.21688 17.4485 8.21688C17.6427 8.21688 17.8001 8.05947 17.8001 7.86531V6.73806C17.8001 6.12981 17.3052 5.63495 16.697 5.63495H16.4261C16.4041 5.59511 16.3791 5.55752 16.3508 5.52311C16.551 5.29563 16.6728 4.99755 16.6728 4.67139C16.6728 4.08142 16.2748 3.583 15.7334 3.42948V2.98047C15.7334 2.78631 15.576 2.62891 15.3818 2.62891C15.1877 2.62891 15.0303 2.78631 15.0303 2.98047V3.42948C14.4888 3.583 14.0909 4.08142 14.0909 4.67139C14.0909 4.88303 14.1424 5.08277 14.2331 5.2592H13.3152C13.121 5.2592 12.9636 5.41661 12.9636 5.61077C12.9636 5.80492 13.121 5.96233 13.3152 5.96233H13.5937L13.1499 6.40609C12.734 6.82197 12.4101 7.30525 12.1879 7.83119C11.9657 7.3053 11.6418 6.82197 11.2259 6.40609L10.7821 5.96233H11.0607C11.2548 5.96233 11.4122 5.80492 11.4122 5.61077C11.4122 5.41661 11.2548 5.2592 11.0607 5.2592H10.1428C10.2334 5.08277 10.2849 4.88303 10.2849 4.67139C10.2849 4.08142 9.887 3.583 9.34555 3.42948V2.98047C9.34555 2.78631 9.18814 2.62891 8.99398 2.62891C8.79983 2.62891 8.64242 2.78631 8.64242 2.98047V3.42948C8.10102 3.583 7.70305 4.08147 7.70305 4.67144C7.70305 4.99759 7.82488 5.29567 8.02508 5.52316C7.99672 5.55756 7.97173 5.59516 7.9498 5.635H7.67886C7.07061 5.635 6.5758 6.12986 6.5758 6.73811V7.86536C6.5758 8.05952 6.7332 8.21692 6.92736 8.21692C7.12152 8.21692 7.27892 8.05952 7.27892 7.86536C7.27892 7.64481 7.45836 7.46542 7.67886 7.46542H9.03627L9.18008 7.60923C9.68141 8.11061 9.95755 8.77722 9.95755 9.48625V10.1441H9.55761C9.16878 10.1441 8.85116 10.451 8.83213 10.8353C8.83091 10.8471 8.8303 10.8592 8.8303 10.8714C8.8303 10.9782 8.78872 11.0787 8.71311 11.1543C8.6376 11.2298 8.53719 11.2714 8.43031 11.2714C8.32348 11.2714 8.22308 11.2298 8.14752 11.1543C7.99156 10.9983 7.99156 10.7446 8.14752 10.5887C8.2782 10.458 8.28538 10.2484 8.16397 10.1091L3.05909 4.25252C2.97313 4.15394 2.83953 4.11119 2.71241 4.14156C2.58523 4.17194 2.48539 4.27042 2.45328 4.39722C2.43763 4.45909 2.15272 5.6283 2.53738 7.04116L2.25073 6.8305C2.15038 6.75681 2.01842 6.74163 1.90386 6.79075C1.78934 6.83992 1.70942 6.94605 1.69381 7.06966C1.68584 7.1328 1.54841 8.30228 2.09384 9.5688L1.82797 9.43169C1.70689 9.3692 1.56055 9.38238 1.45255 9.46544C1.34455 9.5485 1.29425 9.6865 1.3235 9.81963C1.34028 9.89599 1.67731 11.3755 2.74292 12.4027C2.64219 12.4176 2.55177 12.4753 2.49664 12.5628C2.43228 12.6651 2.42492 12.7932 2.47709 12.9021C2.49838 12.9464 2.94195 13.8469 4.04942 14.3806C3.97766 14.4522 3.93875 14.552 3.94663 14.6557C3.95652 14.7856 4.03747 14.8994 4.157 14.9514C4.20359 14.9716 4.93241 15.2813 5.87492 15.2813C6.18041 15.2813 6.50839 15.2483 6.84284 15.1629C6.83811 15.2388 6.85794 15.3154 6.90163 15.3806C6.96716 15.4782 7.07684 15.5363 7.19356 15.5363C7.20041 15.5363 7.20725 15.5361 7.21409 15.5357C7.25914 15.5331 8.09792 15.4781 8.83039 15.0418V15.6494C7.92205 16.074 7.32725 16.9931 7.32725 18.0108C7.32725 18.2049 7.48466 18.3623 7.67881 18.3623H8.45464V18.7623C8.45464 18.9828 8.2752 19.1622 8.0547 19.1622H5.81881L2.9698 15.601C3.08084 15.4289 3.14563 15.2243 3.14563 15.0047C3.14563 14.3964 2.65077 13.9016 2.04256 13.9016C1.43436 13.9016 0.939453 14.3965 0.939453 15.0047C0.939453 15.613 1.43431 16.1078 2.04252 16.1078C2.1755 16.1078 2.30305 16.0841 2.42117 16.0408L6.27706 20.8607C6.34648 20.9475 6.44867 20.9926 6.5518 20.9926C6.62881 20.9926 6.70639 20.9674 6.77117 20.9155C6.92281 20.7943 6.94738 20.573 6.82606 20.4214L6.38117 19.8653H8.05456C8.66281 19.8653 9.15763 19.3705 9.15763 18.7623V18.3623H9.55756C9.75172 18.3623 9.90913 18.2049 9.90913 18.0108C9.90913 17.583 10.2571 17.235 10.6848 17.235H11.0606C11.4777 17.235 11.8181 17.5662 11.8347 17.9794C11.8185 18.3592 11.6197 18.7028 11.2951 18.9056L9.70189 19.9014C9.15608 20.2425 8.83025 20.8304 8.83025 21.4741V22.5198C8.83025 22.714 8.98766 22.8714 9.18181 22.8714C9.37597 22.8714 9.53338 22.714 9.53338 22.5198V21.4741C9.53338 21.0745 9.73569 20.7094 10.0745 20.4976L10.8558 20.0093C10.517 20.4584 10.3333 21.0024 10.3333 21.5748V22.8955C10.3333 23.0897 10.4907 23.2471 10.6848 23.2471C10.879 23.2471 11.0364 23.0897 11.0364 22.8955V21.5748C11.0364 21.0665 11.2343 20.5886 11.5938 20.2292L11.8363 19.9892V23.6471C11.8363 23.8413 11.9937 23.9987 12.1879 23.9987C12.382 23.9987 12.5394 23.8413 12.5394 23.6471V19.9904L12.782 20.2293C13.1414 20.5887 13.3393 21.0666 13.3393 21.5749V22.8956C13.3393 23.0898 13.4968 23.2472 13.6909 23.2472C13.8851 23.2472 14.0425 23.0898 14.0425 22.8956V21.5749C14.0425 21.0025 13.8588 20.4585 13.52 20.0094L14.3012 20.4977C14.6401 20.7095 14.8424 21.0745 14.8424 21.4742V22.5199C14.8424 22.714 14.9998 22.8715 15.194 22.8715C15.3881 22.8715 15.5455 22.714 15.5455 22.5199V21.4742C15.5455 20.8305 15.2196 20.2426 14.6739 19.9015L13.0806 18.9057C12.756 18.7029 12.5573 18.3593 12.5411 17.9795C12.5577 17.5663 12.898 17.2351 13.3152 17.2351H13.6909C14.1186 17.2351 14.4666 17.5831 14.4666 18.0108C14.4666 18.205 14.624 18.3624 14.8182 18.3624H15.2181V18.7623C15.2181 19.0587 15.334 19.3348 15.5444 19.5399C15.7531 19.7431 16.0322 19.854 16.3334 19.854C16.3424 19.854 16.3515 19.8539 16.3606 19.8537H18.3304C18.5935 20.0942 18.9434 20.2412 19.3272 20.2412C20.1426 20.2412 20.806 19.5778 20.806 18.7624C20.806 18.0681 20.325 17.4843 19.6788 17.3261V16.8836C19.6788 16.6894 19.5214 16.532 19.3272 16.532C19.133 16.532 18.9756 16.6894 18.9756 16.8836V17.3261C18.3294 17.4843 17.8484 18.0681 17.8484 18.7624C17.8484 18.8967 17.8667 19.0268 17.9005 19.1506H16.3564C16.3534 19.1506 16.3503 19.1507 16.3473 19.1507C16.2251 19.1533 16.1142 19.1133 16.0352 19.0363C15.9617 18.9648 15.9213 18.8674 15.9213 18.7624V18.3625H16.6971C16.8913 18.3625 17.0487 18.205 17.0487 18.0109C17.0487 16.9933 16.4539 16.0742 15.5455 15.6496V15.042C16.2779 15.4783 17.1168 15.5333 17.1618 15.5359C17.1687 15.5363 17.1755 15.5365 17.1823 15.5365C17.2991 15.5365 17.4088 15.4785 17.4743 15.3808C17.518 15.3156 17.5378 15.2389 17.5331 15.163C17.8675 15.2485 18.1955 15.2815 18.501 15.2814C19.4434 15.2814 20.1724 14.9718 20.2189 14.9515C20.3384 14.8996 20.4194 14.7858 20.4293 14.6558C20.4372 14.5522 20.3983 14.4524 20.3265 14.3808C21.4339 13.847 21.8775 12.9466 21.8988 12.9022C21.951 12.7933 21.9436 12.6652 21.8793 12.563C21.8241 12.4754 21.7337 12.4177 21.633 12.4029C22.6987 11.3755 23.0357 9.89594 23.0525 9.81958ZM2.04256 15.4046C1.82202 15.4046 1.64263 15.2252 1.64263 15.0047C1.64263 14.7842 1.82206 14.6048 2.04256 14.6048C2.26306 14.6048 2.4425 14.7842 2.4425 15.0047C2.4425 15.2252 2.26306 15.4046 2.04256 15.4046ZM19.3273 17.9866C19.755 17.9866 20.103 18.3346 20.103 18.7623C20.103 19.19 19.755 19.538 19.3273 19.538C18.8996 19.538 18.5516 19.19 18.5516 18.7623C18.5516 18.3346 18.8996 17.9866 19.3273 17.9866ZM16.4669 6.33813H16.697C16.9176 6.33813 17.097 6.51756 17.097 6.73811V6.83734C16.973 6.78892 16.838 6.7623 16.697 6.7623H16.0428L16.4669 6.33813ZM15.3819 4.08358C15.706 4.08358 15.9697 4.34725 15.9697 4.67144C15.9697 4.99558 15.7061 5.25925 15.3819 5.25925C15.0577 5.25925 14.7941 4.99558 14.7941 4.67144C14.7941 4.3473 15.0577 4.08358 15.3819 4.08358ZM12.5395 9.57742C12.5395 8.56731 12.9329 7.61763 13.6471 6.90334L14.5881 5.96238H15.7899C15.7982 5.96238 15.806 5.96238 15.8122 5.97728C15.8184 5.99223 15.8129 5.99781 15.807 6.00367L14.6986 7.11208C14.0644 7.74625 13.7152 8.58944 13.7152 9.48625V10.1441H12.5395V9.57742ZM7.67886 6.7623C7.53786 6.7623 7.40295 6.78888 7.27892 6.83734V6.73811C7.27892 6.51756 7.45836 6.33813 7.67886 6.33813H7.90902L8.33319 6.7623H7.67886ZM8.99403 4.08358C9.31817 4.08358 9.58184 4.34725 9.58184 4.67144C9.58184 4.99558 9.31817 5.25925 8.99403 5.25925C8.66989 5.25925 8.40617 4.99558 8.40617 4.67144C8.40617 4.3473 8.66989 4.08358 8.99403 4.08358ZM9.67733 7.11203L8.56892 6.00363C8.56306 5.99777 8.55748 5.99219 8.56367 5.97723C8.56986 5.96233 8.57769 5.96233 8.58603 5.96233H9.78781L10.7288 6.9033C11.4431 7.61758 11.8364 8.56731 11.8364 9.57738V10.144H10.6608V9.4862C10.6607 8.58944 10.3115 7.74625 9.67733 7.11203ZM5.43388 10.0422C5.59034 10.1572 5.81038 10.1235 5.92536 9.96705C6.04034 9.81058 6.00669 9.59055 5.85022 9.47556L3.5967 7.81961C3.09912 6.87972 3.02281 5.93566 3.04738 5.30917L7.45156 10.3617C7.41402 10.4336 7.38505 10.5096 7.36428 10.5881L7.13736 10.4214C6.98089 10.3064 6.76086 10.3401 6.64587 10.4965C6.53089 10.653 6.56455 10.873 6.72097 10.988L7.76816 11.7575C7.78048 11.7666 7.79352 11.774 7.80655 11.7813C7.9888 11.9068 8.20433 11.9745 8.43036 11.9745C8.56944 11.9745 8.70449 11.9486 8.8303 11.8998V13.043L3.26094 10.1707C2.61486 9.3475 2.4328 8.4122 2.38948 7.80503L5.43388 10.0422ZM2.27952 10.4557L6.04691 12.3986H3.93153C3.92633 12.3956 3.92131 12.3924 3.91592 12.3897C3.06148 11.9562 2.55341 11.0939 2.27952 10.4557ZM3.47656 13.1017H6.06139L4.77514 13.9122C4.16047 13.7219 3.74056 13.3864 3.47656 13.1017ZM7.2447 14.2655C7.24245 14.2666 7.24011 14.2674 7.23786 14.2685C6.49784 14.6444 5.70369 14.6093 5.1507 14.5066L7.39381 13.0932L7.72522 13.2641L7.2447 14.2655ZM7.80875 14.7153L8.35034 13.5865L8.83034 13.8341V14.1595C8.54366 14.453 8.14391 14.6206 7.80875 14.7153ZM9.24828 17.6592H8.06309C8.16444 17.1212 8.49472 16.6507 8.96525 16.3722C9.09397 16.6519 9.30739 16.8847 9.57256 17.0377C9.41877 17.2133 9.30552 17.4253 9.24828 17.6592ZM14.0668 16.5319H13.3153C12.8641 16.5319 12.4595 16.735 12.188 17.0545C11.9165 16.735 11.5119 16.5319 11.0607 16.5319H10.3092C9.88147 16.5319 9.53352 16.1839 9.53352 15.7562V10.8714C9.53352 10.858 9.54434 10.8472 9.5577 10.8472H14.8183C14.8317 10.8472 14.8425 10.858 14.8425 10.8714V15.7562C14.8424 16.1839 14.4945 16.5319 14.0668 16.5319ZM16.3128 17.6592H15.1276C15.0703 17.4253 14.9571 17.2133 14.8033 17.0377C15.0685 16.8847 15.2819 16.6519 15.4107 16.3722C15.8812 16.6507 16.2114 17.1212 16.3128 17.6592ZM15.5456 11.8997C15.6714 11.9486 15.8064 11.9745 15.9455 11.9745C16.1716 11.9745 16.3872 11.9067 16.5694 11.7811C16.5824 11.7739 16.5954 11.7665 16.6077 11.7575L19.4377 9.67792C19.5942 9.56294 19.6279 9.34291 19.5129 9.18644C19.3978 9.02992 19.1778 8.99631 19.0214 9.1113L17.0116 10.5881C16.9909 10.5095 16.9619 10.4335 16.9243 10.3617L21.3285 5.30917C21.353 5.93584 21.2767 6.87977 20.7792 7.81956L20.245 8.21209C20.0885 8.32708 20.0549 8.54711 20.1699 8.70358C20.2849 8.86005 20.5049 8.89366 20.6614 8.77872L21.9884 7.80358C21.9463 8.40916 21.765 9.34295 21.115 10.1707L15.5456 13.0429V11.8997H15.5456ZM15.5456 14.1595V13.8341L16.0256 13.5865L16.5672 14.7153C16.2319 14.6206 15.8322 14.453 15.5456 14.1595ZM17.138 14.2685C17.1358 14.2674 17.1335 14.2666 17.1312 14.2655L16.6507 13.2641L16.9821 13.0932L19.2252 14.5066C18.672 14.6093 17.8779 14.6443 17.138 14.2685ZM19.6008 13.9122L18.3145 13.1017H20.898C20.6335 13.3866 20.2134 13.7224 19.6008 13.9122ZM20.4444 12.3986H18.329L22.0963 10.4557C21.8225 11.0941 21.2988 11.9652 20.4444 12.3986Z" fill="white"/>
<path d="M10.7083 3.80667C10.7087 3.80906 10.7091 3.8123 10.7091 3.81619V4.10911C10.7091 4.30327 10.8665 4.46067 11.0607 4.46067H13.3152C13.5094 4.46067 13.6668 4.30327 13.6668 4.10911V3.81619C13.6668 3.8123 13.6672 3.80906 13.6676 3.80667C13.9776 3.53447 14.1085 3.11536 14.0094 2.7098C13.9105 2.30555 13.5827 1.989 13.1743 1.90336C12.9568 1.8577 12.7371 1.87791 12.5395 1.95459V1.07888H12.5637C12.7579 1.07888 12.9153 0.921469 12.9153 0.727313C12.9153 0.533156 12.7579 0.37575 12.5637 0.37575H12.5395V0.351562C12.5395 0.157406 12.3821 0 12.188 0C11.9938 0 11.8364 0.157406 11.8364 0.351562V0.37575H11.8122C11.618 0.37575 11.4606 0.533156 11.4606 0.727313C11.4606 0.921469 11.618 1.07888 11.8122 1.07888H11.8364V1.95459C11.6388 1.87795 11.4192 1.85775 11.2016 1.90331C10.7932 1.98895 10.4654 2.3055 10.3666 2.7098C10.2674 3.11536 10.3983 3.53447 10.7083 3.80667ZM11.0496 2.87681C11.0835 2.7383 11.2053 2.62097 11.3459 2.59148C11.4996 2.55928 11.649 2.61042 11.7458 2.72827C11.8153 2.81288 11.9064 2.87414 12.0078 2.90756C12.0606 2.93916 12.1221 2.95762 12.188 2.95762C12.254 2.95762 12.3155 2.93911 12.3682 2.90752C12.4697 2.87409 12.5607 2.81283 12.6302 2.72822C12.727 2.61037 12.8764 2.55923 13.03 2.59144C13.1707 2.62092 13.2925 2.73825 13.3264 2.87672C13.3804 3.09764 13.2563 3.23316 13.2004 3.28116C13.064 3.39825 12.9805 3.56939 12.966 3.75745H11.4101C11.3957 3.56939 11.312 3.39825 11.1757 3.28116C11.1197 3.23325 10.9955 3.09773 11.0496 2.87681Z" fill="white"/>
<path d="M13.0826 13.8546H13.4734L13.7519 14.4117C13.8135 14.5349 13.9376 14.6062 14.0666 14.6061C14.1195 14.6061 14.1731 14.5942 14.2236 14.5689C14.3973 14.4821 14.4677 14.271 14.3808 14.0973L14.0051 13.3458C13.9455 13.2267 13.8238 13.1514 13.6906 13.1514H13.2907V12.7515C13.2907 12.531 13.4701 12.3516 13.6906 12.3516C13.8848 12.3516 14.0422 12.1942 14.0422 12C14.0422 11.8058 13.8848 11.6484 13.6906 11.6484C13.0824 11.6484 12.5876 12.1433 12.5876 12.7515V13.1514H12.5707C12.5701 13.1514 12.5695 13.1514 12.5688 13.1514H12.5634H12.1634V12C12.1634 11.8058 12.006 11.6484 11.8118 11.6484C11.6177 11.6484 11.4603 11.8058 11.4603 12V12.0242H11.4361C11.2419 12.0242 11.0845 12.1816 11.0845 12.3757C11.0845 12.5699 11.2419 12.7273 11.4361 12.7273H11.4603V13.1514H11.4361C10.8278 13.1514 10.333 13.6463 10.333 14.2545V15.3818C10.333 15.5759 10.4904 15.7333 10.6846 15.7333C10.8787 15.7333 11.0361 15.5759 11.0361 15.3818V14.2545C11.0361 14.034 11.2156 13.8546 11.4361 13.8546H11.4603V15.3818C11.4603 15.576 11.6177 15.7334 11.8118 15.7334C12.006 15.7334 12.1634 15.576 12.1634 15.3818V13.8546H12.3253L12.9884 15.5123C13.0434 15.6498 13.1754 15.7334 13.315 15.7334C13.3584 15.7334 13.4026 15.7253 13.4454 15.7081C13.6257 15.636 13.7134 15.4314 13.6413 15.2512L13.0826 13.8546Z" fill="white"/>
</g>
<defs>
<clipPath id="clip0_3763_12790">
<rect width="24" height="24" fill="white"/>
</clipPath>
</defs>
</svg>
