<svg width="24" height="22" viewBox="0 0 24 22" fill="none" xmlns="http://www.w3.org/2000/svg">
<path d="M23.0525 7.82056C23.0818 7.68748 23.0315 7.54943 22.9235 7.46637C22.8154 7.38335 22.6691 7.37013 22.548 7.43262L22.2822 7.56973C22.8276 6.30326 22.6902 5.13377 22.6822 5.07059C22.6666 4.94698 22.5866 4.84085 22.4721 4.79168C22.3577 4.74251 22.2257 4.75765 22.1253 4.83143L21.8386 5.04209C22.2233 3.62918 21.9384 2.45998 21.9227 2.39815C21.8906 2.27135 21.7908 2.17287 21.6636 2.14249C21.5365 2.11212 21.4029 2.15487 21.3169 2.25345L16.2119 8.10996C16.0904 8.24932 16.0976 8.4589 16.2283 8.58959C16.3039 8.6651 16.3455 8.76556 16.3455 8.87238C16.3455 8.97921 16.3039 9.07962 16.2283 9.15518C16.1528 9.23074 16.0523 9.27232 15.9455 9.27232C15.8387 9.27232 15.7383 9.23074 15.6627 9.15518C15.5871 9.07962 15.5455 8.97917 15.5456 8.87234C15.5456 8.86015 15.545 8.8481 15.5437 8.8362C15.5247 8.45201 15.2071 8.14502 14.8183 8.14502H14.4183V7.48718C14.4183 6.77815 14.6945 6.11154 15.1958 5.61016L15.3396 5.46635H16.697C16.9175 5.46635 17.0969 5.64579 17.0969 5.86629C17.0969 6.06045 17.2543 6.21785 17.4485 6.21785C17.6427 6.21785 17.8001 6.06045 17.8001 5.86629V4.73904C17.8001 4.13079 17.3052 3.63593 16.697 3.63593H16.4261C16.4041 3.59609 16.3791 3.55849 16.3508 3.52409C16.551 3.2966 16.6728 2.99852 16.6728 2.67237C16.6728 2.0824 16.2748 1.58398 15.7334 1.43046V0.981445C15.7334 0.787289 15.576 0.629883 15.3818 0.629883C15.1877 0.629883 15.0303 0.787289 15.0303 0.981445V1.43046C14.4888 1.58398 14.0909 2.0824 14.0909 2.67237C14.0909 2.88401 14.1424 3.08374 14.2331 3.26018H13.3152C13.121 3.26018 12.9636 3.41759 12.9636 3.61174C12.9636 3.8059 13.121 3.9633 13.3152 3.9633H13.5937L13.1499 4.40707C12.734 4.82295 12.4101 5.30623 12.1879 5.83216C11.9657 5.30627 11.6418 4.82295 11.2259 4.40707L10.7821 3.9633H11.0607C11.2548 3.9633 11.4122 3.8059 11.4122 3.61174C11.4122 3.41759 11.2548 3.26018 11.0607 3.26018H10.1428C10.2334 3.08374 10.2849 2.88401 10.2849 2.67237C10.2849 2.0824 9.887 1.58398 9.34555 1.43046V0.981445C9.34555 0.787289 9.18814 0.629883 8.99398 0.629883C8.79983 0.629883 8.64242 0.787289 8.64242 0.981445V1.43046C8.10102 1.58398 7.70305 2.08245 7.70305 2.67241C7.70305 2.99857 7.82488 3.29665 8.02508 3.52413C7.99672 3.55854 7.97173 3.59613 7.9498 3.63598H7.67886C7.07061 3.63598 6.5758 4.13084 6.5758 4.73909V5.86634C6.5758 6.06049 6.7332 6.2179 6.92736 6.2179C7.12152 6.2179 7.27892 6.06049 7.27892 5.86634C7.27892 5.64579 7.45836 5.4664 7.67886 5.4664H9.03627L9.18008 5.61021C9.68141 6.11159 9.95755 6.7782 9.95755 7.48723V8.14507H9.55761C9.16878 8.14507 8.85116 8.45201 8.83213 8.83624C8.83091 8.8481 8.8303 8.86015 8.8303 8.87238C8.8303 8.97921 8.78872 9.07966 8.71311 9.15523C8.6376 9.23079 8.53719 9.27237 8.43031 9.27237C8.32348 9.27237 8.22308 9.23074 8.14752 9.15523C7.99156 8.99927 7.99156 8.74554 8.14752 8.58963C8.2782 8.45895 8.28538 8.24937 8.16397 8.11005L3.05909 2.25349C2.97313 2.15491 2.83953 2.11216 2.71241 2.14254C2.58523 2.17291 2.48539 2.2714 2.45328 2.3982C2.43763 2.46007 2.15272 3.62927 2.53738 5.04213L2.25073 4.83148C2.15038 4.75779 2.01842 4.7426 1.90386 4.79173C1.78934 4.8409 1.70942 4.94702 1.69381 5.07063C1.68584 5.13377 1.54841 6.30326 2.09384 7.56977L1.82797 7.43266C1.70689 7.37018 1.56055 7.38335 1.45255 7.46641C1.34455 7.54948 1.29425 7.68748 1.3235 7.8206C1.34028 7.89696 1.67731 9.37648 2.74292 10.4037C2.64219 10.4186 2.55177 10.4763 2.49664 10.5638C2.43228 10.6661 2.42492 10.7942 2.47709 10.9031C2.49838 10.9474 2.94195 11.8479 4.04942 12.3816C3.97766 12.4532 3.93875 12.553 3.94663 12.6567C3.95652 12.7866 4.03747 12.9004 4.157 12.9523C4.20359 12.9726 4.93241 13.2822 5.87492 13.2822C6.18041 13.2822 6.50839 13.2493 6.84284 13.1638C6.83811 13.2397 6.85794 13.3164 6.90163 13.3816C6.96716 13.4792 7.07684 13.5373 7.19356 13.5373C7.20041 13.5373 7.20725 13.5371 7.21409 13.5367C7.25914 13.5341 8.09792 13.4791 8.83039 13.0428V13.6504C7.92205 14.075 7.32725 14.9941 7.32725 16.0117C7.32725 16.2059 7.48466 16.3633 7.67881 16.3633H8.45464V16.7632C8.45464 16.9838 8.2752 17.1632 8.0547 17.1632H5.81881L2.9698 13.602C3.08084 13.4299 3.14563 13.2252 3.14563 13.0056C3.14563 12.3974 2.65077 11.9026 2.04256 11.9026C1.43436 11.9026 0.939453 12.3974 0.939453 13.0057C0.939453 13.6139 1.43431 14.1087 2.04252 14.1087C2.1755 14.1087 2.30305 14.0851 2.42117 14.0418L6.27706 18.8616C6.34648 18.9484 6.44867 18.9936 6.5518 18.9936C6.62881 18.9936 6.70639 18.9684 6.77117 18.9165C6.92281 18.7953 6.94738 18.574 6.82606 18.4224L6.38117 17.8663H8.05456C8.66281 17.8663 9.15763 17.3714 9.15763 16.7632V16.3633H9.55756C9.75172 16.3633 9.90913 16.2059 9.90913 16.0117C9.90913 15.584 10.2571 15.236 10.6848 15.236H11.0606C11.4777 15.236 11.8181 15.5672 11.8347 15.9804C11.8185 16.3601 11.6197 16.7037 11.2951 16.9066L9.70189 17.9024C9.15608 18.2435 8.83025 18.8314 8.83025 19.475V20.5208C8.83025 20.7149 8.98766 20.8723 9.18181 20.8723C9.37597 20.8723 9.53338 20.7149 9.53338 20.5208V19.475C9.53338 19.0754 9.73569 18.7104 10.0745 18.4986L10.8558 18.0103C10.517 18.4594 10.3333 19.0034 10.3333 19.5758V20.8965C10.3333 21.0906 10.4907 21.248 10.6848 21.248C10.879 21.248 11.0364 21.0906 11.0364 20.8965V19.5758C11.0364 19.0675 11.2343 18.5896 11.5938 18.2302L11.8363 17.9901V21.6481C11.8363 21.8422 11.9937 21.9996 12.1879 21.9996C12.382 21.9996 12.5394 21.8422 12.5394 21.6481V17.9914L12.782 18.2303C13.1414 18.5897 13.3393 19.0676 13.3393 19.5759V20.8966C13.3393 21.0907 13.4968 21.2481 13.6909 21.2481C13.8851 21.2481 14.0425 21.0907 14.0425 20.8966V19.5759C14.0425 19.0035 13.8588 18.4594 13.52 18.0104L14.3012 18.4987C14.6401 18.7105 14.8424 19.0755 14.8424 19.4751V20.5209C14.8424 20.715 14.9998 20.8724 15.194 20.8724C15.3881 20.8724 15.5455 20.715 15.5455 20.5209V19.4751C15.5455 18.8315 15.2196 18.2436 14.6739 17.9025L13.0806 16.9067C12.756 16.7038 12.5573 16.3602 12.5411 15.9805C12.5577 15.5673 12.898 15.2361 13.3152 15.2361H13.6909C14.1186 15.2361 14.4666 15.5841 14.4666 16.0118C14.4666 16.206 14.624 16.3634 14.8182 16.3634H15.2181V16.7633C15.2181 17.0597 15.334 17.3358 15.5444 17.5408C15.7531 17.7441 16.0322 17.855 16.3334 17.8549C16.3424 17.8549 16.3515 17.8549 16.3606 17.8547H18.3304C18.5935 18.0952 18.9434 18.2422 19.3272 18.2422C20.1426 18.2422 20.806 17.5788 20.806 16.7634C20.806 16.0691 20.325 15.4853 19.6788 15.3271V14.8846C19.6788 14.6904 19.5214 14.533 19.3272 14.533C19.133 14.533 18.9756 14.6904 18.9756 14.8846V15.3271C18.3294 15.4853 17.8484 16.0691 17.8484 16.7634C17.8484 16.8977 17.8667 17.0278 17.9005 17.1516H16.3564C16.3534 17.1516 16.3503 17.1516 16.3473 17.1517C16.2251 17.1543 16.1142 17.1142 16.0352 17.0373C15.9617 16.9657 15.9213 16.8684 15.9213 16.7634V16.3634H16.6971C16.8913 16.3634 17.0487 16.206 17.0487 16.0119C17.0487 14.9943 16.4539 14.0751 15.5455 13.6506V13.043C16.2779 13.4793 17.1168 13.5342 17.1618 13.5369C17.1687 13.5372 17.1755 13.5375 17.1823 13.5375C17.2991 13.5375 17.4088 13.4794 17.4743 13.3818C17.518 13.3166 17.5378 13.2399 17.5331 13.164C17.8675 13.2495 18.1955 13.2824 18.501 13.2824C19.4434 13.2823 20.1724 12.9727 20.2189 12.9525C20.3384 12.9005 20.4194 12.7867 20.4293 12.6568C20.4372 12.5531 20.3983 12.4534 20.3265 12.3817C21.4339 11.848 21.8775 10.9476 21.8988 10.9032C21.951 10.7943 21.9436 10.6661 21.8793 10.564C21.8241 10.4764 21.7337 10.4187 21.633 10.4038C22.6987 9.37648 23.0357 7.89691 23.0525 7.82056ZM2.04256 13.4056C1.82202 13.4056 1.64263 13.2262 1.64263 13.0057C1.64263 12.7852 1.82206 12.6057 2.04256 12.6057C2.26306 12.6057 2.4425 12.7852 2.4425 13.0057C2.4425 13.2262 2.26306 13.4056 2.04256 13.4056ZM19.3273 15.9875C19.755 15.9875 20.103 16.3355 20.103 16.7633C20.103 17.191 19.755 17.539 19.3273 17.539C18.8996 17.539 18.5516 17.191 18.5516 16.7633C18.5516 16.3355 18.8996 15.9875 19.3273 15.9875ZM16.4669 4.3391H16.697C16.9176 4.3391 17.097 4.51854 17.097 4.73909V4.83832C16.973 4.7899 16.838 4.76327 16.697 4.76327H16.0428L16.4669 4.3391ZM15.3819 2.08455C15.706 2.08455 15.9697 2.34823 15.9697 2.67241C15.9697 2.99655 15.7061 3.26023 15.3819 3.26023C15.0577 3.26023 14.7941 2.99655 14.7941 2.67241C14.7941 2.34827 15.0577 2.08455 15.3819 2.08455ZM12.5395 7.5784C12.5395 6.56829 12.9329 5.6186 13.6471 4.90432L14.5881 3.96335H15.7899C15.7982 3.96335 15.806 3.96335 15.8122 3.97826C15.8184 3.99321 15.8129 3.99879 15.807 4.00465L14.6986 5.11306C14.0644 5.74723 13.7152 6.59041 13.7152 7.48723V8.14507H12.5395V7.5784ZM7.67886 4.76327C7.53786 4.76327 7.40295 4.78985 7.27892 4.83832V4.73909C7.27892 4.51854 7.45836 4.3391 7.67886 4.3391H7.90902L8.33319 4.76327H7.67886ZM8.99403 2.08455C9.31817 2.08455 9.58184 2.34823 9.58184 2.67241C9.58184 2.99655 9.31817 3.26023 8.99403 3.26023C8.66989 3.26023 8.40617 2.99655 8.40617 2.67241C8.40617 2.34827 8.66989 2.08455 8.99403 2.08455ZM9.67733 5.11301L8.56892 4.0046C8.56306 3.99874 8.55748 3.99316 8.56367 3.97821C8.56986 3.9633 8.57769 3.9633 8.58603 3.9633H9.78781L10.7288 4.90427C11.4431 5.61856 11.8364 6.56829 11.8364 7.57835V8.14502H10.6608V7.48718C10.6607 6.59041 10.3115 5.74723 9.67733 5.11301ZM5.43388 8.04316C5.59034 8.15815 5.81038 8.12449 5.92536 7.96802C6.04034 7.81155 6.00669 7.59152 5.85022 7.47654L3.5967 5.82059C3.09912 4.8807 3.02281 3.93663 3.04738 3.31015L7.45156 8.36271C7.41402 8.43462 7.38505 8.51056 7.36428 8.58912L7.13736 8.42238C6.98089 8.3074 6.76086 8.3411 6.64587 8.49748C6.53089 8.65395 6.56455 8.87398 6.72097 8.98896L7.76816 9.75851C7.78048 9.7676 7.79352 9.77501 7.80655 9.78223C7.9888 9.90776 8.20433 9.97549 8.43036 9.97549C8.56944 9.97549 8.70449 9.94962 8.8303 9.90073V11.044L3.26094 8.1717C2.61486 7.34848 2.4328 6.41318 2.38948 5.80601L5.43388 8.04316ZM2.27952 8.45665L6.04691 10.3996H3.93153C3.92633 10.3966 3.92131 10.3934 3.91592 10.3907C3.06148 9.95721 2.55341 9.0949 2.27952 8.45665ZM3.47656 11.1027H6.06139L4.77514 11.9132C4.16047 11.7229 3.74056 11.3874 3.47656 11.1027ZM7.2447 12.2665C7.24245 12.2675 7.24011 12.2684 7.23786 12.2695C6.49784 12.6454 5.70369 12.6102 5.1507 12.5076L7.39381 11.0942L7.72522 11.2651L7.2447 12.2665ZM7.80875 12.7162L8.35034 11.5875L8.83034 11.8351V12.1605C8.54366 12.454 8.14391 12.6216 7.80875 12.7162ZM9.24828 15.6602H8.06309C8.16444 15.1221 8.49472 14.6517 8.96525 14.3732C9.09397 14.6529 9.30739 14.8856 9.57256 15.0386C9.41877 15.2143 9.30552 15.4263 9.24828 15.6602ZM14.0668 14.5329H13.3153C12.8641 14.5329 12.4595 14.736 12.188 15.0555C11.9165 14.736 11.5119 14.5329 11.0607 14.5329H10.3092C9.88147 14.5329 9.53352 14.1849 9.53352 13.7572V8.87238C9.53352 8.85902 9.54434 8.8482 9.5577 8.8482H14.8183C14.8317 8.8482 14.8425 8.85902 14.8425 8.87238V13.7572C14.8424 14.1849 14.4945 14.5329 14.0668 14.5329ZM16.3128 15.6602H15.1276C15.0703 15.4263 14.9571 15.2143 14.8033 15.0387C15.0685 14.8856 15.2819 14.6529 15.4107 14.3732C15.8812 14.6517 16.2114 15.1221 16.3128 15.6602ZM15.5456 9.90068C15.6714 9.94957 15.8064 9.97545 15.9455 9.97545C16.1716 9.97545 16.3872 9.90766 16.5694 9.78209C16.5824 9.77487 16.5954 9.76751 16.6077 9.75846L19.4377 7.6789C19.5942 7.56391 19.6279 7.34388 19.5129 7.18741C19.3978 7.0309 19.1778 6.99729 19.0214 7.11227L17.0116 8.58907C16.9909 8.51051 16.9619 8.43452 16.9243 8.36266L21.3285 3.31015C21.353 3.93682 21.2767 4.88074 20.7792 5.82054L20.245 6.21307C20.0885 6.32806 20.0549 6.54809 20.1699 6.70456C20.2849 6.86102 20.5049 6.89463 20.6614 6.7797L21.9884 5.80456C21.9463 6.41013 21.765 7.34393 21.115 8.17165L15.5456 11.0439V9.90068H15.5456ZM15.5456 12.1605V11.8351L16.0256 11.5875L16.5672 12.7162C16.2319 12.6215 15.8322 12.454 15.5456 12.1605ZM17.138 12.2695C17.1358 12.2684 17.1335 12.2675 17.1312 12.2665L16.6507 11.2651L16.9821 11.0942L19.2252 12.5076C18.672 12.6102 17.8779 12.6453 17.138 12.2695ZM19.6008 11.9132L18.3145 11.1027H20.898C20.6335 11.3876 20.2134 11.7234 19.6008 11.9132ZM20.4444 10.3996H18.329L22.0963 8.45665C21.8225 9.09504 21.2988 9.96617 20.4444 10.3996Z" fill="#B3B3B3"/>
</svg>
