<svg width="100" height="100" viewBox="0 0 100 100" fill="none" xmlns="http://www.w3.org/2000/svg">
<g opacity="0.2">
<path d="M91 58C91 67.2826 87.3125 76.185 80.7487 82.7487C74.185 89.3125 65.2826 93 56 93C46.7174 93 37.815 89.3125 31.2513 82.7487C24.6875 76.185 21 67.2826 21 58C21 48.7174 24.6875 39.815 31.2513 33.2513C37.815 26.6875 46.7174 23 56 23C65.2826 23 74.185 26.6875 80.7487 33.2513C87.3125 39.815 91 48.7174 91 58Z" fill="white"/>
<path fill-rule="evenodd" clip-rule="evenodd" d="M56 83C62.6304 83 68.9893 80.3661 73.6777 75.6777C78.3661 70.9893 81 64.6304 81 58C81 51.3696 78.3661 45.0107 73.6777 40.3223C68.9893 35.6339 62.6304 33 56 33C49.3696 33 43.0107 35.6339 38.3223 40.3223C33.6339 45.0107 31 51.3696 31 58C31 64.6304 33.6339 70.9893 38.3223 75.6777C43.0107 80.3661 49.3696 83 56 83ZM56 93C60.5963 93 65.1475 92.0947 69.3939 90.3358C73.6403 88.5769 77.4987 85.9988 80.7487 82.7487C83.9988 79.4987 86.5769 75.6403 88.3358 71.3939C90.0947 67.1475 91 62.5963 91 58C91 53.4037 90.0947 48.8525 88.3358 44.6061C86.5769 40.3597 83.9988 36.5013 80.7487 33.2513C77.4987 30.0012 73.6403 27.4231 69.3939 25.6642C65.1475 23.9053 60.5963 23 56 23C46.7174 23 37.815 26.6875 31.2513 33.2513C24.6875 39.815 21 48.7174 21 58C21 67.2826 24.6875 76.185 31.2513 82.7487C37.815 89.3125 46.7174 93 56 93Z" fill="white"/>
</g>
<path d="M85.5466 40.1453C85.6453 39.6962 85.4756 39.2303 85.1111 38.9499C84.7464 38.6697 84.2527 38.6251 83.844 38.836L82.9467 39.2988C84.7875 35.0244 84.3238 31.0773 84.2968 30.864C84.2441 30.4469 83.9742 30.0887 83.5879 29.9227C83.2015 29.7568 82.756 29.8079 82.4172 30.0569L81.4497 30.7679C82.748 25.9992 81.7866 22.0531 81.7336 21.8444C81.6252 21.4165 81.2884 21.0841 80.859 20.9816C80.4299 20.8791 79.9791 21.0234 79.6889 21.3561L62.4592 41.1221C62.0493 41.5924 62.0735 42.2998 62.5148 42.7408C62.7698 42.9957 62.9101 43.3347 62.9101 43.6953C62.9101 44.0558 62.7698 44.3947 62.5146 44.6497C62.2597 44.9048 61.9207 45.0451 61.5602 45.0451C61.1996 45.0451 60.8607 44.9048 60.6057 44.6497C60.3507 44.3947 60.2102 44.0557 60.2104 43.6951C60.2104 43.654 60.2083 43.6133 60.2042 43.5731C60.1399 42.2765 59.068 41.2404 57.7556 41.2404H56.4058V39.0202C56.4058 36.6271 57.3378 34.3773 59.0298 32.6851L59.5152 32.1998H64.0965C64.8409 32.1998 65.4463 32.8054 65.4463 33.5496C65.4463 34.2049 65.9776 34.7361 66.6329 34.7361C67.2881 34.7361 67.8194 34.2049 67.8194 33.5496V29.7451C67.8194 27.6922 66.1492 26.022 64.0965 26.022H63.1821C63.108 25.8875 63.0237 25.7607 62.928 25.6445C63.6037 24.8768 64.0149 23.8707 64.0149 22.7699C64.0149 20.7788 62.6717 19.0966 60.8443 18.5785V17.063C60.8443 16.4077 60.313 15.8765 59.6577 15.8765C59.0025 15.8765 58.4712 16.4077 58.4712 17.063V18.5785C56.6438 19.0966 55.3008 20.7788 55.3008 22.7699C55.3008 23.4842 55.4746 24.1584 55.7806 24.7538H52.6826C52.0273 24.7538 51.4961 25.2851 51.4961 25.9404C51.4961 26.5957 52.0273 27.1269 52.6826 27.1269H53.6227L52.125 28.6246C50.7214 30.0282 49.6282 31.6593 48.8781 33.4344C48.1281 31.6595 47.0349 30.0282 45.6313 28.6246L44.1335 27.1269H45.0736C45.7289 27.1269 46.2601 26.5957 46.2601 25.9404C46.2601 25.2851 45.7289 24.7538 45.0736 24.7538H41.9756C42.2816 24.1584 42.4555 23.4842 42.4555 22.7699C42.4555 20.7788 41.1124 19.0966 39.285 18.5785V17.063C39.285 16.4077 38.7538 15.8765 38.0985 15.8765C37.4432 15.8765 36.9119 16.4077 36.9119 17.063V18.5785C35.0847 19.0966 33.7415 20.7789 33.7415 22.7701C33.7415 23.8709 34.1527 24.8769 34.8284 25.6447C34.7327 25.7608 34.6483 25.8877 34.5743 26.0222H33.6599C31.607 26.0222 29.937 27.6923 29.937 29.7452V33.5497C29.937 34.205 30.4682 34.7363 31.1235 34.7363C31.7788 34.7363 32.3101 34.205 32.3101 33.5497C32.3101 32.8054 32.9157 32.1999 33.6599 32.1999H38.2412L38.7265 32.6853C40.4186 34.3775 41.3505 36.6273 41.3505 39.0203V41.2406H40.0007C38.6884 41.2406 37.6164 42.2765 37.5522 43.5733C37.5481 43.6133 37.546 43.654 37.546 43.6953C37.546 44.0558 37.4057 44.3949 37.1505 44.6499C36.8956 44.9049 36.5568 45.0452 36.1961 45.0452C35.8355 45.0452 35.4966 44.9048 35.2416 44.6499C34.7153 44.1235 34.7153 43.2672 35.2416 42.741C35.6827 42.2999 35.7069 41.5926 35.2971 41.1224L18.0679 21.3562C17.7778 21.0235 17.3269 20.8792 16.8979 20.9818C16.4686 21.0843 16.1317 21.4167 16.0233 21.8446C15.9705 22.0534 15.0089 25.9995 16.3071 30.768L15.3397 30.057C15.001 29.8083 14.5556 29.7571 14.169 29.9229C13.7825 30.0888 13.5127 30.447 13.4601 30.8642C13.4332 31.0773 12.9693 35.0244 14.8102 39.2989L13.9128 38.8362C13.5042 38.6253 13.0103 38.6697 12.6458 38.9501C12.2813 39.2304 12.1115 39.6962 12.2102 40.1455C12.2669 40.4032 13.4044 45.3966 17.0009 48.8635C16.6609 48.9137 16.3557 49.1084 16.1696 49.404C15.9524 49.749 15.9276 50.1814 16.1037 50.5489C16.1755 50.6986 17.6726 53.7377 21.4104 55.539C21.1681 55.7807 21.0368 56.1176 21.0634 56.4674C21.0968 56.9059 21.37 57.29 21.7734 57.4653C21.9307 57.5337 24.3905 58.5788 27.5715 58.5788C28.6025 58.5788 29.7095 58.4675 30.8383 58.1791C30.8223 58.4353 30.8892 58.6941 31.0367 58.914C31.2578 59.2435 31.628 59.4396 32.022 59.4396C32.0451 59.4396 32.0682 59.4389 32.0913 59.4375C32.2433 59.4286 35.0742 59.2431 37.5463 57.7706V59.8213C34.4806 61.2543 32.4732 64.3564 32.4732 67.7909C32.4732 68.4462 33.0044 68.9774 33.6597 68.9774H36.2782V70.3272C36.2782 71.0716 35.6726 71.6771 34.9284 71.6771H27.3821L17.7666 59.6579C18.1414 59.0771 18.36 58.3864 18.36 57.6452C18.36 55.5923 16.6898 53.9223 14.6371 53.9223C12.5844 53.9223 10.9141 55.5925 10.9141 57.6453C10.9141 59.6982 12.5842 61.3682 14.6369 61.3682C15.0858 61.3682 15.5163 61.2883 15.9149 61.1422L28.9287 77.4095C29.163 77.7025 29.5079 77.8548 29.856 77.8548C30.1159 77.8548 30.3777 77.7697 30.5964 77.5947C31.1082 77.1854 31.1911 76.4387 30.7816 75.9269L29.2801 74.0501H34.9279C36.9808 74.0501 38.6508 72.38 38.6508 70.3272V68.9774H40.0006C40.6559 68.9774 41.1871 68.4462 41.1871 67.7909C41.1871 66.3473 42.3615 65.1728 43.8051 65.1728H45.0733C46.4811 65.1728 47.6299 66.2906 47.686 67.6851C47.6313 68.9668 46.9605 70.1265 45.8648 70.8112L40.4877 74.172C38.6456 75.3232 37.5459 77.3074 37.5459 79.4797V83.0091C37.5459 83.6644 38.0771 84.1957 38.7324 84.1957C39.3877 84.1957 39.9189 83.6644 39.9189 83.0091V79.4797C39.9189 78.131 40.6018 76.8991 41.7454 76.1842L44.3822 74.5361C43.2386 76.0517 42.6186 77.8879 42.6186 79.8199V84.2772C42.6186 84.9324 43.1498 85.4637 43.8051 85.4637C44.4604 85.4637 44.9916 84.9324 44.9916 84.2772V79.8199C44.9916 78.1043 45.6597 76.4914 46.8729 75.2783L47.6914 74.4681V86.8138C47.6914 87.4691 48.2227 88.0004 48.878 88.0004C49.5332 88.0004 50.0645 87.4691 50.0645 86.8138V74.4724L50.883 75.2786C52.0962 76.4917 52.7643 78.1046 52.7643 79.8202V84.2775C52.7643 84.9328 53.2955 85.464 53.9508 85.464C54.6061 85.464 55.1373 84.9328 55.1373 84.2775V79.8202C55.1373 77.8882 54.5175 76.0521 53.3738 74.5365L56.0106 76.1845C57.1543 76.8994 57.8371 78.1314 57.8371 79.4801V83.0095C57.8371 83.6647 58.3684 84.196 59.0237 84.196C59.6789 84.196 60.2102 83.6647 60.2102 83.0095V79.4801C60.2102 77.3077 59.1104 75.3235 57.2684 74.1723L51.8911 70.8115C50.7956 70.1268 50.1248 68.9672 50.07 67.6854C50.126 66.291 51.2748 65.1731 52.6826 65.1731H53.9508C55.3944 65.1731 56.5688 66.3476 56.5688 67.7912C56.5688 68.4465 57.1 68.9778 57.7553 68.9778H59.1051V70.3276C59.1051 71.3277 59.4964 72.2596 60.2066 72.9517C60.9107 73.6377 61.8527 74.012 62.8693 74.0118C62.8998 74.0118 62.9305 74.0115 62.9611 74.0109H69.6092C70.4972 74.8226 71.6783 75.3188 72.9736 75.3188C75.7257 75.3188 77.9646 73.0799 77.9646 70.3277C77.9646 67.9844 76.3411 66.0143 74.1601 65.4802V63.9867C74.1601 63.3314 73.6289 62.8002 72.9736 62.8002C72.3183 62.8002 71.787 63.3314 71.787 63.9867V65.4802C69.606 66.0141 67.9825 67.9844 67.9825 70.3277C67.9825 70.7811 68.0444 71.2202 68.1583 71.638H62.947C62.9367 71.638 62.9264 71.6381 62.9161 71.6383C62.5037 71.6471 62.1295 71.5119 61.8628 71.2521C61.6149 71.0107 61.4784 70.6823 61.4784 70.3277V68.9779H64.0968C64.7521 68.9779 65.2834 68.4467 65.2834 67.7914C65.2834 64.357 63.2759 61.2548 60.2102 59.8219V57.7713C62.6822 59.2437 65.5132 59.4293 65.6653 59.4381C65.6884 59.4394 65.7115 59.4402 65.7346 59.4402C66.1285 59.4402 66.4987 59.2443 66.7199 58.9146C66.8675 58.6947 66.9342 58.4359 66.9183 58.1798C68.0471 58.4682 69.1539 58.5794 70.185 58.5792C73.3658 58.5791 75.826 57.5341 75.9831 57.4658C76.3865 57.2905 76.6597 56.9064 76.6931 56.4678C76.7197 56.118 76.5884 55.7812 76.3462 55.5395C80.0838 53.7382 81.581 50.6992 81.6529 50.5494C81.8289 50.1817 81.8041 49.7493 81.5869 49.4044C81.4007 49.1089 81.0955 48.9142 80.7557 48.864C84.3525 45.3966 85.4898 40.403 85.5466 40.1453ZM14.6371 58.9952C13.8928 58.9952 13.2873 58.3895 13.2873 57.6453C13.2873 56.9012 13.8929 56.2955 14.6371 56.2955C15.3813 56.2955 15.9869 56.9012 15.9869 57.6453C15.9869 58.3895 15.3813 58.9952 14.6371 58.9952ZM72.9739 67.7093C74.4175 67.7093 75.5919 68.8838 75.5919 70.3274C75.5919 71.771 74.4175 72.9454 72.9739 72.9454C71.5303 72.9454 70.3559 71.771 70.3559 70.3274C70.3559 68.8838 71.5303 67.7093 72.9739 67.7093ZM63.3199 28.3953H64.0967C64.841 28.3953 65.4465 29.0009 65.4465 29.7452V30.0801C65.0279 29.9167 64.5725 29.8268 64.0967 29.8268H61.8884L63.3199 28.3953ZM59.6579 20.786C60.7519 20.786 61.642 21.676 61.642 22.7701C61.642 23.8641 60.752 24.754 59.6579 24.754C58.5639 24.754 57.674 23.8641 57.674 22.7701C57.674 21.6761 58.5639 20.786 59.6579 20.786ZM50.0648 39.328C50.0648 35.9189 51.3925 32.7136 53.803 30.3029L56.9789 27.1271H61.0349C61.0629 27.1271 61.0895 27.1271 61.1104 27.1774C61.1313 27.2279 61.1126 27.2467 61.0927 27.2665L57.3517 31.0074C55.2114 33.1477 54.0328 35.9935 54.0328 39.0203V41.2406H50.0648V39.328ZM33.6599 29.8268C33.184 29.8268 32.7287 29.9166 32.3101 30.0801V29.7452C32.3101 29.0009 32.9157 28.3953 33.6599 28.3953H34.4367L35.8683 29.8268H33.6599ZM38.0986 20.786C39.1926 20.786 40.0825 21.676 40.0825 22.7701C40.0825 23.8641 39.1926 24.754 38.0986 24.754C37.0046 24.754 36.1146 23.8641 36.1146 22.7701C36.1146 21.6761 37.0046 20.786 38.0986 20.786ZM40.4048 31.0072L36.6639 27.2663C36.6441 27.2465 36.6253 27.2277 36.6462 27.1772C36.667 27.1269 36.6935 27.1269 36.7216 27.1269H40.7777L43.9535 30.3027C46.3642 32.7135 47.6919 35.9189 47.6919 39.3279V41.2404H43.7239V39.0202C43.7238 35.9935 42.545 33.1477 40.4048 31.0072ZM26.0829 40.8966C26.611 41.2847 27.3536 41.1711 27.7417 40.643C28.1298 40.1149 28.0162 39.3723 27.4881 38.9842L19.8824 33.3953C18.2031 30.2232 17.9455 27.0369 18.0284 24.9225L32.8927 41.9751C32.766 42.2178 32.6682 42.4741 32.5982 42.7392L31.8323 42.1765C31.3042 41.7884 30.5616 41.9022 30.1735 42.43C29.7854 42.958 29.899 43.7007 30.4269 44.0887L33.9612 46.686C34.0029 46.7167 34.0468 46.7417 34.0908 46.766C34.7059 47.1897 35.4333 47.4183 36.1962 47.4183C36.6656 47.4183 37.1214 47.331 37.546 47.166V51.0246L18.7492 41.3304C16.5686 38.552 15.9542 35.3954 15.808 33.3461L26.0829 40.8966ZM15.4368 42.2922L28.152 48.8496H21.0125C20.9949 48.8396 20.978 48.8287 20.9598 48.8196C18.076 47.3566 16.3612 44.4463 15.4368 42.2922ZM19.4769 51.2227H28.2008L23.8597 53.9581C21.7851 53.3159 20.3679 52.1836 19.4769 51.2227ZM32.1946 55.1505C32.187 55.1541 32.1791 55.1569 32.1715 55.1607C29.6739 56.4294 26.9936 56.3107 25.1272 55.9643L32.6978 51.1941L33.8163 51.7709L32.1946 55.1505ZM34.0983 56.6684L35.9262 52.859L37.5462 53.6945V54.7927C36.5786 55.7834 35.2294 56.349 34.0983 56.6684ZM38.9567 66.6044H34.9567C35.2987 64.7885 36.4134 63.2007 38.0015 62.2607C38.4359 63.2047 39.1562 63.9903 40.0512 64.5067C39.5321 65.0995 39.1499 65.8151 38.9567 66.6044ZM55.2193 62.7997H52.6829C51.1602 62.7997 49.7946 63.4852 48.8784 64.5637C47.9623 63.4852 46.5965 62.7997 45.0737 62.7997H42.5374C41.0938 62.7997 39.9194 61.6253 39.9194 60.1817V43.6953C39.9194 43.6502 39.956 43.6136 40.0011 43.6136H57.7558C57.8009 43.6136 57.8374 43.6502 57.8374 43.6953V60.1817C57.8373 61.6253 56.6629 62.7997 55.2193 62.7997ZM62.7997 66.6044H58.7996C58.6065 65.8151 58.2244 65.0995 57.7053 64.5069C58.6003 63.9903 59.3206 63.2048 59.755 62.2607C61.3431 63.2007 62.4577 64.7885 62.7997 66.6044ZM60.2104 47.1658C60.6351 47.3308 61.0908 47.4182 61.5602 47.4182C62.3232 47.4182 63.0508 47.1894 63.6659 46.7656C63.7099 46.7412 63.7535 46.7164 63.7951 46.6858L73.3466 39.6672C73.8747 39.2791 73.9883 38.5365 73.6002 38.0084C73.212 37.4802 72.4694 37.3668 71.9414 37.7548L65.1584 42.7391C65.0883 42.4739 64.9905 42.2175 64.8638 41.975L79.728 24.9225C79.8109 27.0375 79.5533 30.2233 77.8741 33.3952L76.0712 34.72C75.5431 35.1081 75.4295 35.8507 75.8176 36.3788C76.2057 36.9069 76.9483 37.0203 77.4764 36.6324L81.9552 33.3412C81.8131 35.3851 81.2013 38.5367 79.0075 41.3303L60.2105 51.0243V47.1658H60.2104ZM60.2104 54.7927V53.6945L61.8304 52.859L63.6583 56.6684C62.5268 56.3489 61.1778 55.7833 60.2104 54.7927ZM65.5851 55.1607C65.5775 55.1569 65.5696 55.1541 65.562 55.1505L63.9404 51.7709L65.0589 51.1941L72.6293 55.9643C70.7623 56.3107 68.082 56.4291 65.5851 55.1607ZM73.8969 53.9581L69.5557 51.2227H78.275C77.3824 52.1841 75.9644 53.3176 73.8969 53.9581ZM76.7441 48.8496H69.6046L82.3195 42.2922C81.3951 44.4468 79.6278 47.3868 76.7441 48.8496Z" fill="white"/>
<path d="M43.8841 19.8477C43.8855 19.8558 43.8868 19.8667 43.8868 19.8798V20.8684C43.8868 21.5237 44.418 22.055 45.0733 22.055H52.6825C53.3378 22.055 53.8691 21.5237 53.8691 20.8684V19.8798C53.8691 19.8667 53.8703 19.8558 53.8717 19.8477C54.9181 18.929 55.36 17.5145 55.0252 16.1457C54.6916 14.7813 53.5852 13.713 52.207 13.4239C51.4729 13.2698 50.7314 13.338 50.0645 13.5968V10.6413H50.1462C50.8015 10.6413 51.3327 10.11 51.3327 9.45471C51.3327 8.79943 50.8015 8.26817 50.1462 8.26817H50.0645V8.18654C50.0645 7.53125 49.5333 7 48.878 7C48.2227 7 47.6915 7.53125 47.6915 8.18654V8.26817H47.6097C46.9544 8.26817 46.4231 8.79943 46.4231 9.45471C46.4231 10.11 46.9544 10.6413 47.6097 10.6413H47.6915V13.5968C47.0246 13.3382 46.2833 13.27 45.5489 13.4238C44.1706 13.7128 43.0643 14.7812 42.7306 16.1457C42.396 17.5145 42.8377 18.929 43.8841 19.8477ZM45.0358 16.7094C45.1502 16.2419 45.5615 15.8459 46.036 15.7464C46.5546 15.6377 47.0588 15.8103 47.3856 16.208C47.6203 16.4936 47.9275 16.7004 48.27 16.8132C48.448 16.9198 48.6556 16.9821 48.8782 16.9821C49.1008 16.9821 49.3083 16.9196 49.4863 16.813C49.8288 16.7002 50.1359 16.4934 50.3703 16.2079C50.697 15.8101 51.2014 15.6375 51.72 15.7462C52.1946 15.8457 52.6059 16.2417 52.7203 16.7091C52.9026 17.4547 52.4835 17.9121 52.2949 18.0741C51.8347 18.4693 51.5526 19.0469 51.5039 19.6816H46.2526C46.2039 19.0469 45.9216 18.4693 45.4616 18.0741C45.2727 17.9124 44.8534 17.455 45.0358 16.7094Z" fill="white"/>
<path d="M51.899 53.7597H53.2176L54.1579 55.6402C54.3657 56.0559 54.7847 56.2964 55.22 56.2962C55.3983 56.2962 55.5793 56.2559 55.7497 56.1708C56.3359 55.8778 56.5735 55.1651 56.2803 54.5789L55.0122 52.0426C54.8112 51.6406 54.4004 51.3867 53.9509 51.3867H52.6011V50.0369C52.6011 49.2925 53.2067 48.687 53.9509 48.687C54.6062 48.687 55.1375 48.1558 55.1375 47.5005C55.1375 46.8452 54.6062 46.314 53.9509 46.314C51.8981 46.314 50.228 47.9841 50.228 50.0369V51.3867H50.1712C50.169 51.3867 50.167 51.3867 50.1648 51.3867H50.1464H48.7964V47.5005C48.7964 46.8452 48.2652 46.314 47.6099 46.314C46.9546 46.314 46.4234 46.8452 46.4234 47.5005V47.5821H46.3417C45.6864 47.5821 45.1552 48.1134 45.1552 48.7687C45.1552 49.424 45.6864 49.9552 46.3417 49.9552H46.4234V51.3867H46.3417C44.2889 51.3867 42.6188 53.0568 42.6188 55.1095V58.9141C42.6188 59.5694 43.1501 60.1006 43.8054 60.1006C44.4607 60.1006 44.9919 59.5694 44.9919 58.9141V55.1095C44.9919 54.3652 45.5975 53.7597 46.3417 53.7597H46.4234V58.9142C46.4234 59.5695 46.9546 60.1008 47.6099 60.1008C48.2652 60.1008 48.7964 59.5695 48.7964 58.9142V53.7597H49.343L51.581 59.3548C51.7666 59.8187 52.2121 60.1009 52.6831 60.1009C52.8297 60.1009 52.9789 60.0736 53.1234 60.0156C53.7318 59.7723 54.0277 59.0818 53.7843 58.4733L51.899 53.7597Z" fill="white"/>
</svg>
