<svg width="12" height="12" viewBox="0 0 12 12" fill="none" xmlns="http://www.w3.org/2000/svg">
<path d="M5.56484 0V3.15789C5.56484 4.2746 5.41538 5.373 5.11648 6.45309C4.81758 7.53318 4.38681 8.5492 3.82418 9.50114C3.27912 10.4348 2.62857 11.2677 1.87253 12L0 10.5721C0.808791 9.41876 1.41538 8.2746 1.81978 7.13959C2.22418 5.98627 2.42637 4.6865 2.42637 3.24027V0H5.56484ZM12 0V3.15789C12 4.2746 11.8505 5.373 11.5516 6.45309C11.2527 7.53318 10.822 8.5492 10.2593 9.50114C9.71429 10.4348 9.06374 11.2677 8.30769 12L6.43516 10.5721C7.24396 9.41876 7.85055 8.2746 8.25494 7.13959C8.65934 5.98627 8.86154 4.6865 8.86154 3.24027V0H12Z" fill="#E9E9E9"/>
</svg>
