<svg width="42" height="42" viewBox="0 0 42 42" fill="none" xmlns="http://www.w3.org/2000/svg">
<circle cx="21" cy="21" r="20.5" stroke="#0578D6" stroke-opacity="0.25"/>
<path fill-rule="evenodd" clip-rule="evenodd" d="M27.5384 16.4779C27.7412 16.6871 27.8046 16.9948 27.7009 17.267L23.7009 27.767C23.6103 28.0047 23.4055 28.1802 23.1569 28.2334C22.9082 28.2866 22.6495 28.2102 22.4697 28.0304L18.0949 23.6555L13.7628 22.2115C13.4581 22.11 13.2519 21.8256 13.25 21.5043C13.2482 21.1831 13.4511 20.8964 13.7547 20.7913L26.7547 16.2913C27.03 16.196 27.3356 16.2687 27.5384 16.4779ZM19.6599 23.0993L22.7114 26.1508L25.4239 19.0306L19.6599 23.0993ZM22.2417 19.4408L16.3315 21.4866L18.3774 22.1686L22.2417 19.4408Z" fill="#0578D6"/>
<path fill-rule="evenodd" clip-rule="evenodd" d="M10.25 21C10.25 15.0628 15.0628 10.25 21 10.25C26.9372 10.25 31.75 15.0628 31.75 21C31.75 26.9372 26.9372 31.75 21 31.75C15.0628 31.75 10.25 26.9372 10.25 21ZM21 11.75C15.8912 11.75 11.75 15.8912 11.75 21C11.75 26.1088 15.8912 30.25 21 30.25C26.1088 30.25 30.25 26.1088 30.25 21C30.25 15.8912 26.1088 11.75 21 11.75Z" fill="#0578D6"/>
</svg>
