<svg width="100" height="100" viewBox="0 0 100 100" fill="none" xmlns="http://www.w3.org/2000/svg">
<g opacity="0.2">
<path d="M92.5 55C92.5 64.2826 88.8125 73.185 82.2487 79.7487C75.685 86.3125 66.7826 90 57.5 90C48.2174 90 39.315 86.3125 32.7513 79.7487C26.1875 73.185 22.5 64.2826 22.5 55C22.5 45.7174 26.1875 36.815 32.7513 30.2513C39.315 23.6875 48.2174 20 57.5 20C66.7826 20 75.685 23.6875 82.2487 30.2513C88.8125 36.815 92.5 45.7174 92.5 55Z" fill="white"/>
<path fill-rule="evenodd" clip-rule="evenodd" d="M57.5 80C64.1304 80 70.4893 77.3661 75.1777 72.6777C79.8661 67.9893 82.5 61.6304 82.5 55C82.5 48.3696 79.8661 42.0107 75.1777 37.3223C70.4893 32.6339 64.1304 30 57.5 30C50.8696 30 44.5107 32.6339 39.8223 37.3223C35.1339 42.0107 32.5 48.3696 32.5 55C32.5 61.6304 35.1339 67.9893 39.8223 72.6777C44.5107 77.3661 50.8696 80 57.5 80ZM57.5 90C62.0963 90 66.6475 89.0947 70.8939 87.3358C75.1403 85.5769 78.9987 82.9988 82.2487 79.7487C85.4988 76.4987 88.0769 72.6403 89.8358 68.3939C91.5947 64.1475 92.5 59.5963 92.5 55C92.5 50.4037 91.5947 45.8525 89.8358 41.6061C88.0769 37.3597 85.4988 33.5013 82.2487 30.2513C78.9987 27.0012 75.1403 24.4231 70.8939 22.6642C66.6475 20.9053 62.0963 20 57.5 20C48.2174 20 39.315 23.6875 32.7513 30.2513C26.1875 36.815 22.5 45.7174 22.5 55C22.5 64.2826 26.1875 73.185 32.7513 79.7487C39.315 86.3125 48.2174 90 57.5 90Z" fill="white"/>
</g>
<path fill-rule="evenodd" clip-rule="evenodd" d="M28.0201 27.2501C24.5639 30.6553 21.922 34.7976 20.2917 39.3673C18.6614 43.9371 18.0848 48.8162 18.6051 53.6401C18.6535 54.288 18.4477 54.9294 18.0314 55.4283C17.615 55.9271 17.0208 56.2443 16.3746 56.3125C15.7285 56.3808 15.0811 56.1948 14.5697 55.7939C14.0583 55.3931 13.7231 54.8088 13.6351 54.1651C13.035 48.5935 13.7013 42.9584 15.5844 37.6805C17.4676 32.4026 20.5187 27.6184 24.5101 23.6851C39.1951 9.20006 62.8851 9.43506 77.4201 24.1751C91.9551 38.9101 91.8601 62.6001 77.1701 77.0851C70.3705 83.8026 61.242 87.6389 51.6851 87.7951C48.0718 87.8595 44.4682 87.4031 40.9851 86.4401C40.3459 86.2637 39.803 85.8406 39.4757 85.264C39.1485 84.6873 39.0637 84.0042 39.2401 83.3651C39.4164 82.7259 39.8395 82.183 40.4162 81.8557C40.9928 81.5285 41.6759 81.4437 42.3151 81.62C45.3359 82.4555 48.4614 82.8512 51.5951 82.7951C59.8696 82.6629 67.7739 79.3422 73.6601 73.5251C86.3651 60.9951 86.4701 40.4751 73.8601 27.6851C61.2501 14.8951 40.7251 14.7201 28.0201 27.2501Z" fill="white"/>
<path fill-rule="evenodd" clip-rule="evenodd" d="M17.97 56.8151C17.7514 57.06 17.4866 57.2595 17.1909 57.4021C16.8952 57.5447 16.5742 57.6276 16.2465 57.6462C15.9187 57.6648 15.5904 57.6186 15.2805 57.5103C14.9705 57.402 14.6849 57.2337 14.44 57.0151L5.84003 49.3651C5.57566 49.1529 5.35721 48.8891 5.19798 48.5898C5.03874 48.2905 4.94204 47.962 4.91375 47.6241C4.88546 47.2863 4.92618 46.9462 5.03343 46.6246C5.14068 46.303 5.31221 46.0066 5.53761 45.7534C5.76301 45.5001 6.03756 45.2954 6.34456 45.1516C6.65156 45.0078 6.9846 44.9279 7.32344 44.9169C7.66227 44.9058 7.99981 44.9638 8.31554 45.0872C8.63127 45.2107 8.91859 45.3971 9.16003 45.6351L17.76 53.2851C18.0057 53.503 18.2059 53.7673 18.3494 54.0626C18.4929 54.358 18.5768 54.6788 18.5963 55.0066C18.6158 55.3344 18.5706 55.6628 18.4631 55.9731C18.3556 56.2834 18.1881 56.5695 17.97 56.8151Z" fill="white"/>
<path fill-rule="evenodd" clip-rule="evenodd" d="M14.1 56.5C14.297 56.7626 14.5438 56.9839 14.8263 57.1512C15.1087 57.3185 15.4214 57.4284 15.7464 57.4749C16.0714 57.5213 16.4024 57.5033 16.7204 57.4218C17.0385 57.3403 17.3373 57.197 17.6 57L27.6 49.5C28.1304 49.1022 28.4811 48.5099 28.5749 47.8536C28.6686 47.1972 28.4978 46.5304 28.1 46C27.7022 45.4696 27.1099 45.1189 26.4535 45.0251C25.7972 44.9314 25.1304 45.1022 24.6 45.5L14.6 53C14.0696 53.3978 13.7189 53.9901 13.6251 54.6464C13.5313 55.3028 13.7022 55.9696 14.1 56.5ZM50 32.5C50.663 32.5 51.2989 32.7634 51.7678 33.2322C52.2366 33.7011 52.5 34.337 52.5 35V52.5C52.5 53.163 52.2366 53.7989 51.7678 54.2678C51.2989 54.7366 50.663 55 50 55C49.3369 55 48.7011 54.7366 48.2322 54.2678C47.7634 53.7989 47.5 53.163 47.5 52.5V35C47.5 34.337 47.7634 33.7011 48.2322 33.2322C48.7011 32.7634 49.3369 32.5 50 32.5Z" fill="white"/>
<path fill-rule="evenodd" clip-rule="evenodd" d="M67.5 52.5C67.5 53.163 67.2366 53.7989 66.7678 54.2678C66.2989 54.7366 65.663 55 65 55H50C49.337 55 48.7011 54.7366 48.2322 54.2678C47.7634 53.7989 47.5 53.163 47.5 52.5C47.5 51.837 47.7634 51.2011 48.2322 50.7322C48.7011 50.2634 49.337 50 50 50H65C65.663 50 66.2989 50.2634 66.7678 50.7322C67.2366 51.2011 67.5 51.837 67.5 52.5Z" fill="white"/>
</svg>
