<svg width="42" height="42" viewBox="0 0 42 42" fill="none" xmlns="http://www.w3.org/2000/svg">
<circle cx="21" cy="21" r="20.5" stroke="#0578D6" stroke-opacity="0.25"/>
<path fill-rule="evenodd" clip-rule="evenodd" d="M21.2495 10.25C22.9626 10.2477 24.6526 10.6456 26.1848 11.4119C27.7171 12.1783 29.0493 13.2921 30.075 14.6644C31.1008 16.0368 31.7917 17.6297 32.0929 19.3164C32.3941 21.003 32.2971 22.7367 31.8097 24.3792C31.3223 26.0217 30.458 27.5277 29.2856 28.7771C28.1132 30.0265 26.6652 30.9847 25.0569 31.5755C23.4487 32.1662 21.7247 32.3731 20.0223 32.1797C18.445 32.0004 16.9268 31.4822 15.5711 30.6621L11.2525 32.2062C10.9763 32.305 10.6679 32.2337 10.4631 32.0237C10.2583 31.8137 10.1947 31.5037 10.3003 31.23L11.9097 27.0586C10.9283 25.4803 10.3616 23.6771 10.2657 21.8167C10.1629 19.8245 10.6038 17.8418 11.5413 16.0808C12.4787 14.3199 13.8774 12.8471 15.5876 11.82C17.2976 10.793 19.2547 10.2503 21.2495 10.25ZM21.2495 10.25C21.2496 10.25 21.2498 10.25 21.2499 10.25L21.25 11L21.249 10.25C21.2491 10.25 21.2493 10.25 21.2495 10.25ZM25.5138 12.7535C24.1904 12.0916 22.7307 11.748 21.2511 11.75L21.2501 11.75C19.5272 11.7502 17.8368 12.2189 16.3599 13.1059C14.8829 13.993 13.6749 15.2649 12.8653 16.7857C12.0557 18.3065 11.6749 20.0189 11.7637 21.7394C11.8524 23.46 12.4074 25.1241 13.3692 26.5535C13.5059 26.7566 13.5348 27.0137 13.4467 27.2421L12.289 30.2426L15.409 29.127C15.6299 29.0481 15.875 29.077 16.0715 29.2052C17.3106 30.014 18.7214 30.5222 20.1917 30.6893C21.6619 30.8563 23.1508 30.6776 24.5397 30.1674C25.9287 29.6573 27.1793 28.8297 28.1918 27.7507C29.2043 26.6717 29.9508 25.371 30.3717 23.9525C30.7926 22.534 30.8764 21.0367 30.6163 19.5801C30.3562 18.1234 29.7594 16.7477 28.8735 15.5625C27.9877 14.3773 26.8372 13.4154 25.5138 12.7535Z" fill="#0578D6"/>
<path fill-rule="evenodd" clip-rule="evenodd" d="M17.9733 15.6144C18.0249 15.6034 18.0776 15.5978 18.1304 15.5978H19.0217C19.3084 15.5978 19.5701 15.7613 19.6958 16.019L19.7841 16.1994C19.8395 16.3122 19.9171 16.4699 20.0057 16.6488C20.1836 17.0079 20.4038 17.4482 20.5785 17.7846C20.7968 18.2047 20.7375 18.6321 20.6352 18.937C20.5328 19.2423 20.3592 19.5162 20.203 19.7264C20.0987 19.8668 19.9905 19.9941 19.8928 20.1014C20.1311 20.6592 20.4683 21.1707 20.8891 21.6108C21.3292 22.0316 21.8407 22.3688 22.3985 22.6071C22.5058 22.5094 22.6331 22.4012 22.7735 22.2969C22.9837 22.1407 23.2576 21.9671 23.5629 21.8647C23.8678 21.7624 24.2952 21.7031 24.7153 21.9214C25.0517 22.0961 25.492 22.3163 25.8511 22.4942C26.03 22.5828 26.1877 22.6604 26.3005 22.7158L26.4802 22.8038C26.7379 22.9295 26.9021 23.1915 26.9021 23.4782V24.3695C26.9021 24.4223 26.8965 24.475 26.8855 24.5266C26.7404 25.2042 26.3655 25.8108 25.8243 26.2438C25.2842 26.6759 24.6115 26.9084 23.9199 26.9021C23.4897 26.9013 23.0088 26.7698 22.5561 26.599C22.0873 26.4222 21.5853 26.1787 21.0955 25.9036C20.124 25.3581 19.1336 24.6507 18.4914 24.0085C17.8492 23.3663 17.1418 22.3759 16.5963 21.4044C16.3212 20.9146 16.0777 20.4126 15.9009 19.9438C15.7301 19.4911 15.5986 19.0102 15.5978 18.5801C15.5915 17.8884 15.824 17.2157 16.2561 16.6756C16.6891 16.1344 17.2957 15.7595 17.9733 15.6144ZM25.4021 23.9455C25.3349 23.9124 25.262 23.8763 25.1853 23.8383C24.8409 23.6677 24.4142 23.4545 24.0718 23.2773C24.0634 23.2794 24.0529 23.2825 24.04 23.2868C23.9467 23.3181 23.8179 23.3896 23.6682 23.5009C23.5245 23.6076 23.3926 23.7276 23.2943 23.824C23.246 23.8714 23.2079 23.9112 23.1826 23.9381C23.1701 23.9515 23.1609 23.9616 23.1553 23.9677L23.1503 23.9732C22.9525 24.1982 22.6395 24.2841 22.3546 24.1913C21.4128 23.8845 20.5527 23.3684 19.8388 22.6818C19.8317 22.6751 19.8248 22.6682 19.8181 22.6611C19.1315 21.9472 18.6154 21.0871 18.3086 20.1453C18.2158 19.8605 18.3014 19.5478 18.5262 19.35L19.0217 19.913C18.5267 19.3496 18.5263 19.3499 18.5262 19.35L18.5322 19.3446C18.5383 19.339 18.5484 19.3298 18.5618 19.3173C18.5887 19.292 18.6285 19.2539 18.6759 19.2056C18.7723 19.1073 18.8923 18.9754 18.999 18.8317C19.1103 18.682 19.1818 18.5532 19.2131 18.4599C19.2174 18.447 19.2204 18.4365 19.2226 18.4281C19.0454 18.0857 18.8322 17.659 18.6616 17.3146C18.6235 17.2379 18.5875 17.165 18.5544 17.0978H18.2179C17.9067 17.1801 17.6293 17.3602 17.4274 17.6126C17.2106 17.8836 17.0942 18.2212 17.0977 18.5683L17.0978 18.576C17.0978 18.7376 17.1554 19.0194 17.3044 19.4145C17.4479 19.7949 17.6556 20.2272 17.9042 20.6699C18.4059 21.5635 19.0355 22.4314 19.552 22.9479C20.0685 23.4644 20.9364 24.094 21.83 24.5957C22.2727 24.8443 22.705 25.052 23.0854 25.1955C23.4805 25.3445 23.7623 25.4021 23.9239 25.4021H23.9316C24.2787 25.4057 24.6163 25.2893 24.8873 25.0724C25.1397 24.8706 25.3198 24.5932 25.4021 24.282V23.9455ZM19.2272 18.4027C19.2273 18.4027 19.2273 18.4037 19.227 18.406L19.2272 18.4027ZM18.5262 19.35C18.5262 19.35 18.5262 19.35 18.5262 19.35V19.35ZM24.0972 23.2727C24.0971 23.2728 24.096 23.2729 24.0939 23.2729L24.0972 23.2727Z" fill="#0578D6"/>
</svg>
